<?xml version="1.0" encoding="UTF-8"?>
<svg id="_레이어_2" xmlns="http://www.w3.org/2000/svg" version="1.1" viewBox="0 0 187.6 126.1">
  <!-- Generator: Adobe Illustrator 29.2.1, SVG Export Plug-In . SVG Version: 2.1.0 Build 116)  -->
  <defs>
    <style>
      .st0 {
        fill: #924eff;
      }
    </style>
  </defs>
  <path class="st0" d="M163.7,5.7c-21.2-4-32.4,13.1-35.4,29-2.9,15.2-1.7,35.4-.7,49,1,13.6.7,25.8-14.9,25.8h-9.9c5-6.6,7.9-14.9,7.9-23.8,0-14.3-7.6-26.9-19-33.9.9-3.4,1.5-7,1.5-10.7,0-21.9-17.8-39.7-39.7-39.7h-12.4C18.8,1.4.7,19.5.7,41.8v47.8c0,19.8,16.1,35.9,35.9,35.9h78.3c19.5,0,25.8-2.6,34.1-8.6,11.9-8.6,22.2-28.3,25.5-35.5,5.2-11.1,9.4-23.7,11.7-35.7,3-16-1.1-35.9-22.3-40h0ZM163.7,66.5c-.2.6-.5,1.1-1.1,1.4l-7.7,4.4,5.6,6.9c.4.5.6,1.1.5,1.7s-.4,1.2-.9,1.5c-.4.3-.9.5-1.4.5s-.3,0-.4,0c-.5,0-1-.4-1.4-.8l-6-7.5-8.3,4.8c-.5.3-1,.4-1.6.3-.7-.1-1.2-.5-1.6-1.1-.3-.5-.4-1.2-.2-1.8.2-.6.5-1.1,1.1-1.4l7.7-4.4-5.6-6.9c-.4-.5-.6-1.1-.5-1.7,0-.6.4-1.2.9-1.5,1-.8,2.4-.6,3.2.4l6,7.5,8.3-4.8c1.1-.6,2.5-.2,3.1.8.3.5.4,1.2.2,1.8ZM169.7,35.2c-.2.6-.5,1.1-1.1,1.4l-7.7,4.4,5.6,7c.4.5.6,1.1.5,1.7,0,.6-.4,1.2-.9,1.5-.4.3-.9.5-1.4.5s-.3,0-.4,0c-.5,0-1-.4-1.4-.8l-6-7.5-8.3,4.8c-.5.3-1,.4-1.6.3-.7-.1-1.2-.5-1.6-1.1-.3-.5-.4-1.2-.2-1.8.2-.6.5-1.1,1.1-1.4l7.7-4.4-5.6-7c-.4-.5-.6-1.1-.5-1.7s.4-1.2.9-1.5c1-.8,2.4-.6,3.2.4l6,7.5,8.3-4.8c1.1-.6,2.5-.2,3.1.8.3.5.4,1.2.2,1.7Z"/>
</svg>