<?xml version="1.0" encoding="UTF-8"?>
<svg id="_레이어_1" data-name="레이어_1" xmlns="http://www.w3.org/2000/svg" version="1.1" viewBox="0 0 245.9 142.3">
  <!-- Generator: Adobe Illustrator 29.2.1, SVG Export Plug-In . SVG Version: 2.1.0 Build 116)  -->
  <defs>
    <style>
      .st0 {
        fill: #4c83c3;
      }

      .st1 {
        fill: #fdba12;
      }

      .st2 {
        fill: #b22c1b;
      }
    </style>
  </defs>
  <path class="st0" d="M13.8,137.6c-.3,0-.6,0-.9.1-.2,0-.5.2-.6.3-.2.1-.3.3-.4.4,0,.1-.1.3-.1.4s0,.2,0,.3c0,.1.2.3.3.4.2.1.4.2.6.3.6.2,1.3.2,1.9,0,.2,0,.4-.2.6-.3.1-.1.3-.2.3-.4,0,0,0-.2,0-.3s0-.3-.1-.4c0-.2-.2-.3-.4-.4-.2-.1-.4-.2-.6-.3-.3,0-.5-.1-.8-.1ZM13.8,142.3c-.6,0-1.1,0-1.6-.2-.5-.1-1-.4-1.4-.7-.4-.3-.7-.7-1-1.1-.3-.5-.4-1-.4-1.5s.1-1.1.4-1.5c.2-.4.6-.8,1-1.2.4-.3.8-.5,1.4-.7,1-.3,2.2-.3,3.2,0,.5.2,1,.4,1.3.7.4.3.7.7,1,1.1.3.5.4,1,.4,1.5s-.1,1-.4,1.5c-.2.4-.6.8-1,1.1-.4.3-.8.5-1.4.7-.5.1-1,.2-1.6.2Z"/>
  <path class="st0" d="M26.8,134.6c-.4,0-.8,0-1.1.2-.3.1-.6.2-.8.4-.2.2-.4.4-.5.6-.1.2-.2.4-.2.6s0,.4.1.5c.1.2.3.4.5.5.2.2.5.3.8.4.7.2,1.7.2,2.4,0h0c.3,0,.6-.2.8-.4.2-.2.4-.3.5-.5,0-.2.1-.3.1-.5s0-.4-.2-.6c-.1-.2-.3-.4-.5-.6-.2-.2-.5-.3-.8-.4-.3-.1-.7-.2-1.1-.2ZM26.8,140.3c-.6,0-1.3,0-1.8-.2-.6-.2-1.1-.4-1.6-.8-.5-.3-.8-.8-1.1-1.2-.3-.5-.4-1.1-.4-1.7s.1-1.2.4-1.7c.3-.5.6-.9,1.1-1.3.4-.3,1-.6,1.6-.8,1.2-.4,2.5-.4,3.7,0,.6.2,1.1.5,1.5.8.5.4.8.8,1.1,1.3.3.5.4,1.1.4,1.7s-.1,1.2-.4,1.7c-.3.5-.6.9-1.1,1.2-.4.3-1,.6-1.6.8-.6.2-1.2.2-1.8.2Z"/>
  <path class="st0" d="M41.2,131.5c-.5,0-1,0-1.4.2-.4.1-.8.3-1.1.5-.3.2-.5.5-.7.8-.1.3-.2.5-.2.8s0,.5.2.7c.1.3.3.5.6.7.3.2.6.4,1,.5.9.3,2.1.3,3,0h0c.4-.1.8-.3,1-.5.3-.2.5-.4.6-.7.1-.2.2-.5.2-.7s0-.6-.2-.8c-.2-.3-.4-.5-.7-.8-.3-.2-.6-.4-1.1-.6-.4-.1-.9-.2-1.4-.2ZM41.2,138.3c-.8,0-1.5,0-2.1-.3-.7-.2-1.3-.5-1.8-.9-.5-.4-.9-.9-1.2-1.4-.3-.6-.5-1.2-.5-1.9s.2-1.3.5-2c.3-.6.7-1.1,1.3-1.5.5-.4,1.1-.7,1.8-.9,1.3-.4,2.9-.4,4.3,0,.7.2,1.3.5,1.8.9.5.4,1,.9,1.3,1.5.3.6.5,1.3.5,2s-.2,1.3-.5,1.9c-.3.5-.7,1-1.2,1.4-.5.4-1.1.7-1.8.9-.6.2-1.4.3-2.1.3Z"/>
  <path class="st0" d="M49.2,93.4c-.4.4-.9.4-1.3.2-.4-.2-.7-.7-.7-1.2.2-1.4-.2-2.3-1.1-2.8-1.6-1-4.9-.6-7.2.9-.8.5-2.2,1.6-2,3.1,0,.6-.4,1.2-1,1.3-.6,0-1.2-.4-1.3-1-.6-4.5-3-5.9-4.9-6.2-3.2-.6-6.9,1.1-8.6,3.9-1.4,2.4-.9,5.1,1.3,7.7.3.3.4.7.2,1.1-.1.4-.5.7-.9.8-8.3,1.8-10.9,5.7-10.6,8.8.4,3.6,5,7.4,12.9,7.4s.6.1.8.3c.2.2.3.5.3.8,0,1.6.5,2.8,1.2,3.7h35.2c5.1,0,9.3-4.2,9.3-9.3v-20.9c-5.6-4.6-14.7-5.6-21.7,1.4Z"/>
  <path class="st0" d="M8.9,110c-.4-3.8,2.2-8.5,10.7-10.9-1.9-3-2.1-6.1-.4-8.9,2.2-3.7,6.9-5.8,11.1-5,2.6.5,4.6,2.2,5.7,4.7.5-.5,1-1,1.7-1.5,2.7-1.7,7-2.6,9.7-.9,1,.6,1.6,1.5,2,2.5,7.1-5.7,15.6-4.9,21.6-1v-13.9c0-5.1-4.2-9.3-9.3-9.3H9.3c-5.1,0-9.3,4.2-9.3,9.3v37.7c0,5.1,4.2,9.3,9.3,9.3h14.5c-.4-.8-.7-1.7-.8-2.6-8.6-.4-13.6-5-14.1-9.5Z"/>
  <path class="st0" d="M75.3,107.2c4.4-5.6,2.4-12-1.7-16-.8-.8-1.7-1.5-2.6-2.1v2.9c.3.3.7.6,1,.8,3.3,3.2,5.5,8.7.9,13.6-.2.2-.3.5-.3.9s.2.6.4.8c3.5,3,3.7,8.8.5,13.5-4.2,6.2-14.2,9.9-29.5,1.8-.2,0-.4-.1-.5-.1s-.5,0-.7.2c-3.4,2.6-9.1,3-13.2.9-.9-.4-2-1.2-2.9-2.3h-2.7c.9,1.8,2.4,3.4,4.6,4.4,4.6,2.3,11,2,15.1-.7,6.3,3.3,11.9,4.6,16.5,4.6,7.3,0,12.5-3.3,15.3-7.5,3.6-5.3,3.5-11.9,0-15.8Z"/>
  <path class="st1" d="M115.1,83.3c.4.2.7.5.7.9l1.3,10.3h4.4v-12.1c0-.4.2-.7.5-.9l2.1-1.6-6.2-1.8c-.5-.1-.8-.6-.8-1,0-.5.2-.9.7-1.1l5.9-2.6-5.2-1.5c-.4-.1-.7-.4-.8-.8-.1-.4,0-.8.3-1.1l3.6-3.9h-18.3c.3,7.6,4.9,14.3,11.9,17.4Z"/>
  <path class="st1" d="M127.3,71.9c.5.1.8.6.8,1,0,.5-.2.9-.7,1.1l-5.9,2.6,5.3,1.6c.4.1.7.5.8.9,0,.4,0,.9-.4,1.1l-3.4,2.6v11.5h4.9l1.2-10.2c0-.4.3-.8.7-1,7-3,11.6-9.8,11.9-17.4h-17.9l-3.8,4.1,6.4,1.9Z"/>
  <path class="st1" d="M129.8,101.8h-14c-.6,0-1.2-.5-1.2-1.2s.5-1.2,1.2-1.2h14c.6,0,1.2.5,1.2,1.2s-.5,1.2-1.2,1.2ZM129.8,106.3h-14c-.6,0-1.2-.5-1.2-1.2s.5-1.2,1.2-1.2h14c.6,0,1.2.5,1.2,1.2s-.5,1.2-1.2,1.2ZM129.8,110.8h-14c-.6,0-1.2-.5-1.2-1.2s.5-1.2,1.2-1.2h14c.6,0,1.2.5,1.2,1.2s-.5,1.2-1.2,1.2ZM125.3,115.3h-5c-.6,0-1.2-.5-1.2-1.2s.5-1.2,1.2-1.2h5c.6,0,1.2.5,1.2,1.2s-.5,1.2-1.2,1.2ZM149.1,65.9h-4.3c-.3,8.3-5.2,15.7-12.7,19.2l-1.3,10.6c0,.6-.6,1-1.2,1h-13.7c-.6,0-1.1-.4-1.2-1l-1.3-10.7c-7.5-3.5-12.4-10.9-12.7-19.2h-4.1c-5.1,0-9.3,4.2-9.3,9.3v37.7c0,5.1,4.2,9.3,9.3,9.3h52.4c5.1,0,9.3-4.2,9.3-9.3v-37.7c0-5.1-4.2-9.3-9.3-9.3Z"/>
  <path class="st1" d="M101.6,57.3c-.2,0-.3,0-.5,0l-12.6-5.2c-.5-.2-.7-.6-.7-1.1,0-.2,0-.3,0-.5.3-.6,1-.9,1.6-.7l12.6,5.2c.5.2.7.6.7,1.1,0,.2,0,.3,0,.5-.2.5-.6.7-1.1.7Z"/>
  <path class="st1" d="M106.6,49.8c-.3,0-.6-.1-.9-.4l-9.5-9.5c-.2-.2-.4-.5-.4-.9s.1-.6.4-.9c.5-.5,1.2-.5,1.7,0l9.5,9.5c.2.2.4.5.4.9s-.1.6-.4.9c-.2.2-.5.4-.9.4Z"/>
  <path class="st1" d="M114,44.8c-.5,0-.9-.3-1.1-.7l-5.1-12.3c0-.2,0-.3,0-.5,0-.5.3-.9.7-1.1.6-.3,1.3,0,1.6.7l5.1,12.3c0,.2,0,.3,0,.5,0,.5-.3.9-.7,1.1-.2,0-.3,0-.5,0Z"/>
  <path class="st1" d="M122.8,43.1c-.7,0-1.2-.5-1.2-1.2v-13.3c0-.7.5-1.2,1.2-1.2s1.2.5,1.2,1.2v13.3c0,.7-.5,1.2-1.2,1.2Z"/>
  <path class="st1" d="M131.6,44.8c-.2,0-.3,0-.5,0-.5-.2-.7-.6-.7-1.1s0-.3,0-.5l5.1-12.4c.3-.6,1-.9,1.6-.7.5.2.7.6.7,1.1s0,.3,0,.5l-5.1,12.4c-.2.5-.6.7-1.1.7Z"/>
  <path class="st1" d="M139.1,49.8c-.3,0-.6-.1-.9-.4s-.4-.5-.4-.9.1-.6.4-.9l9.6-9.6c.5-.5,1.2-.5,1.7,0,.2.2.4.5.4.9s-.1.6-.4.9l-9.6,9.6c-.2.2-.5.4-.9.4Z"/>
  <path class="st1" d="M144.1,57.3c-.5,0-.9-.3-1.1-.7,0-.2,0-.3,0-.5,0-.5.3-.9.7-1.1l12.8-5.3c.6-.3,1.3,0,1.6.7,0,.2,0,.3,0,.5,0,.5-.3.9-.7,1.1l-12.8,5.3c-.2,0-.3,0-.5,0Z"/>
  <path class="st2" d="M236.6,65.9h-21.6c1.2,1.1,2.5,2.1,3.9,2.9,0,0,0,0,0,0,9.3,6,13.7,12.7,13,19.9-.8,8.4-8.6,17.2-23,26-4.8,3-9.7,5.5-13.5,7.3h41.1c5.1,0,9.3-4.2,9.3-9.3v-37.7c0-5.1-4.2-9.3-9.3-9.3Z"/>
  <path class="st2" d="M229.6,88.6c.6-6.2-3.4-12.2-11.9-17.7-1.2-.8-3.8-2.5-6-4.9h-27.5c-5.1,0-9.3,4.2-9.3,9.3v37.7c0,5.1,4.2,9.3,9.3,9.3h5.6c9.3-4.1,38.2-18,39.7-33.6Z"/>
  <path class="st2" d="M211.8,49.4s0,0,0,0c-.1,0-.2.1-.3.2,0,0,0,0,0,0-.1.1-.2.2-.3.4h0s0,0,0,0c0,0,0,.2,0,.2,0,0,0,.1,0,.2,0,0,0,0,0,0,0,.2,0,.3,0,.4h0s2.2,5.6,2.2,5.6h-8.4l2.2-5.6s0,0,0,0c0-.1,0-.3,0-.4s0,0,0,0c0,0,0-.1,0-.2,0,0,0-.1,0-.2,0,0,0,0,0,0,0,0,0,0,0,0,0-.1-.1-.2-.3-.3,0,0,0,0,0,0-.1,0-.2-.2-.3-.2,0,0,0,0,0,0-9.8-3.4-17.8-14.9-18.4-26.3-.3-5.7,1.5-10.6,5.1-14.4,3.9-4.1,9.6-6.4,16-6.4s12.1,2.3,16,6.4c3.6,3.8,5.4,8.8,5.1,14.4-.5,11.3-8.6,22.9-18.4,26.3ZM222.1,52.2c.2.4,0,.7-.2.9-.8.6-3.2.9-7.1-2,4.5-.9,6.8,0,7.3,1.1ZM196.3,53.1c-.2-.2-.4-.5-.2-.9.4-.7,1.7-1.4,4.1-1.4s2,.1,3.2.3c-3.9,2.9-6.3,2.6-7.1,2ZM232.6,23.3c.3-6.3-1.7-11.9-5.8-16.2-4.4-4.6-10.6-7.1-17.7-7.1s-13.3,2.5-17.7,7.1c-4.1,4.3-6.1,9.9-5.8,16.2.5,9.8,6.2,19.7,13.9,25.2-3,.1-4.8,1.3-5.5,2.7-.7,1.3-.4,2.9.8,3.8.7.6,1.7.9,3,.9s3.4-.5,5.6-1.9l-1.3,3.3c-.1.4,0,.8.1,1.1.2.3.6.5,1,.5h4.9c.3,2.3,1.5,4.7,3.7,7h3.3c-1.9-1.7-4.1-4.3-4.6-7h4.7c.4,0,.8-.2,1-.5.2-.3.3-.7.1-1.1l-1.3-3.3c2.2,1.3,4.1,1.9,5.6,1.9s2.3-.4,3-.9c1.2-1,1.5-2.5.8-3.8-.7-1.4-2.5-2.5-5.5-2.7,7.7-5.5,13.4-15.4,13.9-25.2Z"/>
</svg>