<?xml version="1.0" encoding="UTF-8"?><svg id="_레이어_2" xmlns="http://www.w3.org/2000/svg" viewBox="0 0 40 40"><defs><style>.cls-1{fill:none;}.cls-2{fill:#fff;}.cls-2,.cls-3,.cls-4,.cls-5{fill-rule:evenodd;}.cls-3{fill:#9fbed1;}.cls-6{fill:#1e2a3c;}.cls-4{fill:#8699b7;}.cls-5{fill:#54718a;}</style></defs><g id="logo"><rect class="cls-1" width="40" height="40"/><rect class="cls-6" width="40" height="40" rx="5" ry="5"/><path class="cls-4" d="M24.69,14.33c-.85.11-4.18-1.96-10.57-5.39-5.57-2.99-4.05,1.26-3.56,2.42.07.16.08.34.04.52-.21.83-.34,3.98,6.14,10.88.26.28.37.55.16.87-.05.07-.07.12-.07.12-.89,1.42,8.5-9.94,7.84-9.41Z"/><rect class="cls-1" width="40" height="40"/><path class="cls-5" d="M24.69,14.33c-.82-.18-1.07-.36-3.94-7.02-2.15-4.98-4.23-.26-4.18,1,0,.18-.04.35-.14.5-.49.7-3.04,4.61.58,13.37.14.35.12,1.09-.09,1.45-.05.07-.07.12-.07.12-.89,1.42,8.5-9.94,7.84-9.41Z"/><rect class="cls-1" width="40" height="40"/><path class="cls-3" d="M24.68,14.33c-.77.1-3.6-1.6-8.85-4.46-.77,1.76-1.62,5.6,1.16,12.31.14.35.12,1.09-.09,1.45-.05.07-.07.11-.07.11-.89,1.42,8.5-9.94,7.84-9.41Z"/><path class="cls-2" d="M32,13.33c-.92-.09-1.64-1.61-3.23-1.61s-3.42,2.08-4.08,2.61c-.94.59-6,.63-13.47,1.16-6.61.46-4.15,2.24-3.39,2.7.11.06.16.16.15.27-.07.54.81,2.94,8.59,4.53.73.15.28.76.28.76-.89,1.42-3.84,6.41-4.79,10.81-.19.89.69-1.32,4.31-4.4,3.63-3.08,7.26-2.54,10.5-6.76,3.24-4.22,1.64-7.15,5.13-8.06l8-2s-7.91,0-8,0Z"/></g></svg>