<svg xmlns="http://www.w3.org/2000/svg" viewBox="0 0 89.36 89.36"><defs><style>.cls-1{fill:#2b9b3d;}.cls-2{fill:#fff;}</style></defs><g id="레이어_2" data-name="레이어 2"><g id="레이어_1-2" data-name="레이어 1"><circle class="cls-1" cx="44.68" cy="44.68" r="44.68"/><path class="cls-2" d="M13,58.83V55.89l10-9.44c1.07-1,2-1.92,2.65-2.7a9.68,9.68,0,0,0,1.57-2.21,5,5,0,0,0,.52-2.24A3.9,3.9,0,0,0,27.07,37a4.47,4.47,0,0,0-1.89-1.52,6.69,6.69,0,0,0-2.71-.53,6.18,6.18,0,0,0-2.77.59,4.28,4.28,0,0,0-1.82,1.67,4.83,4.83,0,0,0-.64,2.53H13a7.49,7.49,0,0,1,1.24-4.3,8.27,8.27,0,0,1,3.41-2.86,11.47,11.47,0,0,1,4.93-1,11.41,11.41,0,0,1,4.92,1,8.22,8.22,0,0,1,3.33,2.73,6.67,6.67,0,0,1,1.2,3.9,7.4,7.4,0,0,1-.61,2.93,12.92,12.92,0,0,1-2.13,3.18,56.73,56.73,0,0,1-4.22,4.25l-5.89,5.6v.2H32.49v3.48Z"/><path class="cls-2" d="M32.56,53.57V50.29L45.35,31.92H48.2v4.84H46.39L37.24,49.92v.21H54.77v3.44Zm14,5.26V52.57l0-1.49V31.92h4.24V58.83Z"/><path class="cls-2" d="M66.77,59.28a10.32,10.32,0,0,1-5.85-1.65,10.17,10.17,0,0,1-3.72-4.74,19.61,19.61,0,0,1-1.28-7.5,19.46,19.46,0,0,1,1.29-7.48,10.6,10.6,0,0,1,15.38-4.72,10.38,10.38,0,0,1,3.73,4.73,19.37,19.37,0,0,1,1.29,7.47,19.58,19.58,0,0,1-1.29,7.51,9.71,9.71,0,0,1-9.55,6.38Zm0-3.51a5.29,5.29,0,0,0,4.7-2.67c1.14-1.78,1.7-4.35,1.7-7.71a18.2,18.2,0,0,0-.77-5.67,7.57,7.57,0,0,0-2.21-3.52A5.17,5.17,0,0,0,66.77,35a5.31,5.31,0,0,0-4.7,2.68c-1.13,1.78-1.71,4.35-1.72,7.71a18,18,0,0,0,.78,5.68,7.47,7.47,0,0,0,2.2,3.51A5.21,5.21,0,0,0,66.77,55.77Z"/></g></g></svg>