<?xml version="1.0" encoding="UTF-8"?><svg id="_레이어_2" xmlns="http://www.w3.org/2000/svg" xmlns:xlink="http://www.w3.org/1999/xlink" viewBox="0 0 142.36 204.5"><defs><style>.cls-1{fill:#b60005;}.cls-2{fill:#bfc0c0;}.cls-3{clip-path:url(#clippath);}</style><clipPath id="clippath"><path class="cls-1" d="M134.69,122.65c-.89-3.46-1.97-7-3.12-10.75-4.06-13.3-9.42-28.38-9.42-50.29,0-12.69,2.61-22.83,5.79-37.58-3.56-3.78-13.25-13.75-16.35-17.05H30.73c-3.1,3.3-12.79,13.26-16.34,17.05,3.18,14.75,5.79,24.89,5.79,37.58,0,21.91-5.36,36.99-9.42,50.29-1.15,3.75-2.23,7.3-3.11,10.75,0,0-5.08,19.47,8.63,36.98,9.81,12.92,27.2,22.89,41.13,30.13,5.61,2.91,10.14,4.4,13.73,6.74v.03s0,0,0,0c0,0,.01,0,.02-.01,0,0,.02,0,.02.01,0,0,0,0,0,0v-.03c3.6-2.34,8.12-3.84,13.73-6.74,13.93-7.24,31.32-17.21,41.13-30.13,13.72-17.52,8.63-36.98,8.63-36.98Z"/></clipPath></defs><g id="_레이어_1-2"><path class="cls-2" d="M137.72,108.45c-18.34-46.87-1.23-85.6-1.23-85.6L115.38,0H26.98L5.86,22.86s17.11,38.73-1.23,85.6c-3.14,8.03-9.77,30.88,2.46,50.58,13.98,22.53,47.63,36.96,64.08,45.47v-.21s.02.21.02.21c16.45-8.51,50.1-22.94,64.08-45.47,12.22-19.7,5.6-42.55,2.46-50.58Z"/><path class="cls-1" d="M134.69,122.65c-.89-3.46-1.97-7-3.12-10.75-4.06-13.3-9.42-28.38-9.42-50.29,0-12.69,2.61-22.83,5.79-37.58-3.56-3.78-13.25-13.75-16.35-17.05H30.73c-3.1,3.3-12.79,13.26-16.34,17.05,3.18,14.75,5.79,24.89,5.79,37.58,0,21.91-5.36,36.99-9.42,50.29-1.15,3.75-2.23,7.3-3.11,10.75,0,0-5.08,19.47,8.63,36.98,9.81,12.92,27.2,22.89,41.13,30.13,5.61,2.91,10.14,4.4,13.73,6.74v.03s0,0,0,0c0,0,.01,0,.02-.01,0,0,.02,0,.02.01,0,0,0,0,0,0v-.03c3.6-2.34,8.12-3.84,13.73-6.74,13.93-7.24,31.32-17.21,41.13-30.13,13.72-17.52,8.63-36.98,8.63-36.98Z"/><g class="cls-3"><path class="cls-2" d="M142.14,131.38L71.14,63.04.14,131.38c-2.03,10.43-1.63,21.42.62,29.36l70.38-65.86,70.38,65.86c2.25-7.93,2.65-18.92.62-29.36Z"/></g><path class="cls-2" d="M30.81,26.77c0-1.55-.19-2.06-1.62-2.19v-.51h7.24v.55c-1.45.13-1.63.64-1.63,2.19v19.44c0,1.55.13,2.06,1.58,2.19v.59h-7.19v-.55c1.43-.11,1.62-.63,1.62-2.18v-19.53Z"/><path class="cls-2" d="M56.55,34.97v-8.1c0-1.55.13-2.06-1.21-2.19v-.6h6.74v.6c-1.49.13-1.65.64-1.65,2.19v19.37c0,1.56.16,2.06,1.62,2.2v.59h-7.09v-.55c1.48-.11,1.59-.63,1.59-2.18v-9.57h-9.6v9.57c0,1.55.06,2.06,1.44,2.18v.55h-6.97v-.51c1.43-.12,1.63-.64,1.63-2.18v-19.53c0-1.55-.15-2.06-1.65-2.19v-.55h6.72v.51c-1.3.13-1.18.64-1.18,2.19v8.2h9.6Z"/><path class="cls-2" d="M65.31,44.41c.37,1.02,2.92,3.65,6.91,3.65,2.68,0,4.27-1.79,4.27-4.42s-1.81-4.21-4.63-5.63c-2.98-1.47-6.71-3.64-6.71-7.47s3.06-6.95,8.43-6.95c2.15,0,3.87.5,5.06.84.15,1.49.25,2.3.44,3.44l-.67.12c-.41-1.16-1.77-2.93-5.52-2.93-2.43,0-3.85,1.82-3.85,3.99,0,2.29,1.78,3.68,4.59,5.06,3.35,1.59,6.86,3.68,6.86,7.94s-3.68,7.5-9.01,7.5c-1.28,0-2.62-.2-3.56-.46-1.03-.26-1.89-.58-2.62-.86-.34-1.1-.44-2.48-.65-3.64l.66-.16Z"/><path class="cls-2" d="M89.84,139.49l-1.8,5.29s1.91.26,3.72.75l-3.15,8.35s-6.13-1.02-12.05-1.31l.36-9.06s1.3-.01,3.08.17l.6-5.29c-3.08-.24-6.19-.37-9.33-.37s-6.27.13-9.36.37l.6,5.29c1.78-.19,3.08-.17,3.08-.17l.36,9.06c-5.93.3-12.06,1.31-12.06,1.31l-3.14-8.38c1.88-.43,3.72-.72,3.72-.72l-1.81-5.3c-6.66,1.05-13.14,2.64-19.39,4.74,7.92,10.78,15.55,25.77,15.55,25.77,24.24-4.79,44.84,0,44.84,0,3.65-7.72,12.39-21.8,15.54-25.78-6.24-2.1-12.72-3.69-19.38-4.73Z"/></g></svg>