<svg xmlns="http://www.w3.org/2000/svg" viewBox="0 0 512 512"><defs><style>.cls-1{fill:#17ce3a;}.cls-2{fill:#fff;}</style></defs><title>solvedac-logo</title><rect class="cls-1" x="22.37" y="128.84" width="466.63" height="255.09" rx="47.67"/><path class="cls-2" d="M132.9,305.55l43.57-98.39c3-6.78,8.57-10.89,16.06-10.89h1.61c7.5,0,12.86,4.11,15.89,10.89l43.57,98.39a13.44,13.44,0,0,1,1.43,5.53,13,13,0,0,1-13,13.22c-6.42,0-10.71-3.76-13.21-9.47l-8.39-19.64h-55l-8.75,20.53A13.52,13.52,0,0,1,144,324.3a12.66,12.66,0,0,1-12.68-12.86A14.58,14.58,0,0,1,132.9,305.55Zm77.31-34.64-17.32-41.25-17.32,41.25Z"/><path class="cls-2" d="M263.05,261.09v-.36c0-35.53,26.78-64.63,65.17-64.63,18.75,0,31.43,5,41.78,12.67a13.76,13.76,0,0,1,5.36,10.89,13.41,13.41,0,0,1-13.57,13.39,14.41,14.41,0,0,1-8.21-2.67c-7.68-5.72-15.72-8.93-25.54-8.93-21.07,0-36.24,17.5-36.24,38.92v.36C291.8,282.16,306.62,300,328,300c11.61,0,19.29-3.57,27.14-9.82a12.74,12.74,0,1,1,16.43,19.46c-11.25,9.82-24.46,15.71-44.46,15.71C290.37,325.36,263.05,297,263.05,261.09Z"/></svg>