<svg xmlns="http://www.w3.org/2000/svg" viewBox="0 0 161.8 100"><g data-name="레이어 2"><g data-name="레이어 1"><path d="M156.21 67.39l-61.8-61.8a19.13 19.13 0 0 0-27 0 19.13 19.13 0 0 0 0 27l61.8 61.8a19.11 19.11 0 0 0 27-27z" fill="#ffb717"/><path d="M99.36 14.14l-5-8.55a19.13 19.13 0 0 0-27 0 19.13 19.13 0 0 0 0 27l50.15 50.14z" fill="#ffa71a"/><path d="M94.41 5.59a19.13 19.13 0 0 0-27 0L5.59 67.39a19.13 19.13 0 0 0 0 27 19.13 19.13 0 0 0 27 0l61.8-61.8a19.13 19.13 0 0 0 .02-27z" fill="#ff3b57"/></g></g></svg>