<?xml version="1.0" encoding="UTF-8"?>
<svg id="_레이어_1" xmlns="http://www.w3.org/2000/svg" version="1.1" viewBox="0 0 950.9 117.8">
  <!-- Generator: Adobe Illustrator 29.2.1, SVG Export Plug-In . SVG Version: 2.1.0 Build 116)  -->
  <path d="M0,26.3h10.2v10.5h.9c2.8-7.2,9.2-11.3,17.8-11.3s14.6,4.2,17.8,11.3h.7c3.4-6.9,10.4-11.3,19.9-11.3s20.4,7.3,20.4,22.9v44.5h-10.6v-44.3c0-9.8-6.1-13.6-13.4-13.6s-14.6,6.2-14.6,14.7v43.2h-10.7v-45.4c0-7.5-5.4-12.6-13.1-12.6s-14.9,6.8-14.9,16.5v41.5H0V26.3Z"/>
  <path d="M101.4,60.1c0-20.4,12-34.6,30.1-34.6s28.8,8.6,28.8,33.3v4.4h-48.2c.5,14,8.7,21.7,20.5,21.7s13-3.5,15.4-7.6h11.3c-3.1,10.1-13,17-26.7,17s-31.1-13.7-31.1-34.1ZM149.5,54.1c0-11.1-7-19.3-17.9-19.3s-18.8,9.1-19.5,19.3h37.5Z"/>
  <path d="M196.6,55.3c0-15.8,9.1-25.6,21.3-25.6s12.5,5.6,13.9,8.4h.6v-7.5h9.4v35.9c.2,4.8,2.2,7.1,6.1,7.1,7.6,0,12.7-8.8,12.8-21.7,0-23-16.6-38.1-40-38.1-24.3,0-39.9,18.8-40,41.7,0,24.9,13.6,41.9,39.4,41.7,8.7,0,14.3-.6,21.7-2.6v8.2c-6.4,1.7-13.6,2.9-21.7,2.9-29.9,0-48.2-19.1-48.2-50.1,0-29,20.3-50.1,48.8-50.1s48.9,19.9,48.8,46.3c0,19-9.8,30.1-22.3,30.1s-13.4-4.3-14-10h-.7c-1.5,2.7-5.2,9.4-14.7,9.4s-21.2-9.9-21.2-25.8ZM219.4,72.2c8.7,0,13.2-6.8,13.3-17,0-10-4.4-16.6-13.3-16.6s-13.3,7.3-13.3,16.6,4.8,17,13.3,17Z"/>
  <path d="M294.8,92.8h-10.6V4.1h10.6v32.7h.9c3.1-6.9,9.1-11.3,19.6-11.3s22.7,8.1,22.7,25.1v42.3h-10.6v-41.5c0-10.5-5.7-16.5-15.2-16.5s-17.3,6.5-17.3,18v39.9Z"/>
  <path d="M376.5,54.3c4.3-.3,15.1-.9,18-1v-5.4c0-8.4-5-13.3-15.1-13.3s-13.4,3.9-15,9h-10.9c1.3-10.7,11.7-18.2,26.4-18.2s25,2.6,25,23.6v43.8h-10.5v-9h-.5c-2.2,4.4-8.2,10.6-19.7,10.6s-22.7-7.4-22.7-20.4,13.4-18.7,24.9-19.6ZM376,85c12,0,18.5-8,18.5-16.3v-6.7c-3.1.2-13.6,1-16.7,1.2-9.6.6-15.7,4-15.7,11.3s5.8,10.6,13.9,10.6Z"/>
  <path d="M449.6,92.8h-10.8l-24.5-66.5h11.4l18.2,52.7h.7l18.2-52.7h11.4l-24.6,66.5Z"/>
  <path d="M505.5,54.3c4.3-.3,15.1-.9,18-1v-5.4c0-8.4-5-13.3-15.1-13.3s-13.4,3.9-15,9h-10.9c1.3-10.7,11.7-18.2,26.4-18.2s25,2.6,25,23.6v43.8h-10.5v-9h-.5c-2.2,4.4-8.2,10.6-19.7,10.6s-22.7-7.4-22.7-20.4,13.4-18.7,24.9-19.6ZM505,85c12,0,18.5-8,18.5-16.3v-6.7c-3.1.2-13.6,1-16.7,1.2-9.6.6-15.7,4-15.7,11.3s5.8,10.6,13.9,10.6Z"/>
  <path d="M561.4,92.8h-10.6V26.3h10.2v10.5h.9c3.1-6.8,9.4-11.3,19.4-11.3s22.5,8.2,22.5,25.1v42.3h-10.6v-41.5c0-10.3-5.6-16.5-15.1-16.5s-16.8,6.5-16.8,18v39.9Z"/>
  <path d="M642.4,54.3c4.3-.3,15.1-.9,18-1v-5.4c0-8.4-5-13.3-15.1-13.3s-13.4,3.9-15,9h-10.9c1.3-10.7,11.7-18.2,26.4-18.2s25,2.6,25,23.6v43.8h-10.5v-9h-.5c-2.2,4.4-8.2,10.6-19.7,10.6s-22.7-7.4-22.7-20.4,13.4-18.7,24.9-19.6ZM641.9,85c12,0,18.5-8,18.5-16.3v-6.7c-3.1.2-13.6,1-16.7,1.2-9.6.6-15.7,4-15.7,11.3s5.8,10.6,13.9,10.6Z"/>
  <path d="M687.4,85.6c0-4.3,3.6-7.9,7.9-7.9s7.9,3.6,7.9,7.9-3.6,7.9-7.9,7.9-8-3.6-7.9-7.9Z"/>
  <path d="M719.6,26.3h10.2v10.5h.9c2.8-7.2,9.2-11.3,17.8-11.3s14.6,4.2,17.8,11.3h.7c3.4-6.9,10.4-11.3,19.9-11.3s20.4,7.3,20.4,22.9v44.5h-10.6v-44.3c0-9.8-6.1-13.6-13.4-13.6s-14.6,6.2-14.6,14.7v43.2h-10.7v-45.4c0-7.5-5.4-12.6-13.1-12.6s-14.9,6.8-14.9,16.5v41.5h-10.6V26.3Z"/>
  <path d="M821,59.9c0-20.8,12.2-34.5,30.3-34.5s30.2,13.7,30.2,34.5-12.1,34.3-30.2,34.3-30.3-13.7-30.3-34.3ZM851.3,84.8c13.4,0,19.7-11.7,19.7-24.9s-6.2-25.1-19.7-25.1-19.7,11.9-19.7,25.1,6.2,24.9,19.7,24.9Z"/>
  <path d="M892.1,60.1c0-20.4,12-34.6,30.1-34.6s28.8,8.6,28.8,33.3v4.4h-48.2c.5,14,8.7,21.7,20.5,21.7s13-3.5,15.4-7.6h11.3c-3.1,10.1-13,17-26.7,17s-31.1-13.7-31.1-34.1ZM940.2,54.1c0-11.1-7-19.3-17.9-19.3s-18.8,9.1-19.5,19.3h37.5Z"/>
</svg>