<?xml version="1.0" encoding="UTF-8"?><svg id="_레이어_1" xmlns="http://www.w3.org/2000/svg" viewBox="0 0 890.54 105.8"><defs><style>.cls-1{fill:#000;stroke-width:0px;}</style></defs><path class="cls-1" d="M70.03,25.13c-2.73-1.5-5.91-2.25-9.54-2.25-2.82,0-5.4.4-7.73,1.21-2.33.81-4.35,1.98-6.08,3.52-1.72,1.54-3.1,3.34-4.12,5.39h-.66c-.95-2.16-2.18-4-3.68-5.53-1.5-1.52-3.28-2.67-5.33-3.44-2.05-.77-4.36-1.15-6.93-1.15-3.89,0-7.22.89-10.01,2.67-2.79,1.78-4.8,4.26-6.05,7.45h-.77v-9.35H0v59.72h9.46v-37.28c0-2.82.62-5.36,1.87-7.62,1.25-2.25,2.89-4,4.92-5.25,2.03-1.25,4.24-1.87,6.63-1.87s4.31.46,6.1,1.37c1.8.92,3.17,2.24,4.12,3.96.95,1.72,1.43,3.68,1.43,5.88v40.8h9.57v-38.82c.04-2.57.58-4.84,1.62-6.82,1.04-1.98,2.54-3.54,4.48-4.67,1.94-1.14,4.27-1.7,6.98-1.7,3.56,0,6.45,1,8.69,3,2.24,2,3.37,5.07,3.41,9.21v39.81h9.46v-39.92c0-4.55-.77-8.36-2.31-11.44-1.54-3.08-3.68-5.37-6.41-6.87Z"/><path class="cls-1" d="M130.74,25.85c-3.9-1.98-8.11-2.97-12.62-2.97-5.35,0-10.06,1.3-14.13,3.9-4.07,2.6-7.24,6.27-9.51,11-2.27,4.73-3.41,10.14-3.41,16.22s1.14,11.44,3.41,16.06c2.27,4.62,5.51,8.19,9.71,10.72,4.2,2.53,9.14,3.79,14.82,3.79,4.03,0,7.7-.62,11-1.87,3.3-1.25,6.05-3.02,8.25-5.31,2.2-2.29,3.78-4.96,4.73-8h-10.12c-.77,1.28-1.79,2.43-3.05,3.44-1.27,1.01-2.81,1.82-4.65,2.45-1.83.62-3.89.94-6.16.94-3.67,0-6.87-.81-9.62-2.42-2.75-1.61-4.91-3.98-6.49-7.09-1.43-2.82-2.2-6.18-2.34-10.06h43.31v-3.96c0-6.96-1.21-12.68-3.63-17.16-2.42-4.47-5.58-7.7-9.49-9.68ZM100.59,48.61c.21-2.77.92-5.39,2.16-7.86,1.45-2.9,3.49-5.21,6.13-6.93,2.64-1.72,5.72-2.58,9.24-2.58,3.23,0,6.07.75,8.52,2.25,2.46,1.5,4.34,3.57,5.66,6.21s1.98,5.61,1.98,8.91h-33.7Z"/><path class="cls-1" d="M221.04,10.12c-6.69-3.59-14.34-5.39-22.96-5.39s-15.97,1.92-22.6,5.77c-6.64,3.85-11.83,9.2-15.59,16.06-3.76,6.86-5.62,14.57-5.58,23.15,0,9.24,1.74,17.25,5.22,24.03,3.48,6.78,8.48,11.99,14.99,15.62,6.51,3.63,14.22,5.44,23.12,5.44,3.48,0,6.84-.22,10.06-.66,3.23-.44,6.36-1.06,9.4-1.87v-7.48c-3.23.88-6.27,1.48-9.13,1.81s-6.31.53-10.34.6c-7.59.07-14.03-1.45-19.33-4.56-5.3-3.12-9.3-7.5-12.02-13.14-2.71-5.65-4.07-12.24-4.07-19.8.04-6.82,1.55-13.09,4.54-18.81,2.99-5.72,7.19-10.24,12.59-13.56,5.41-3.32,11.65-4.99,18.72-5.03,6.96,0,13.2,1.43,18.7,4.29,5.5,2.86,9.76,6.88,12.79,12.07,3.02,5.19,4.52,11.17,4.48,17.96,0,3.78-.48,7.12-1.43,10.04-.95,2.91-2.3,5.2-4.04,6.85-1.74,1.65-3.73,2.47-5.97,2.47-1.76.04-3.1-.48-4.01-1.54-.92-1.06-1.41-2.68-1.48-4.84V27.5h-8.36v6.71h-.55c-1.1-1.98-2.6-3.73-4.51-5.25-1.91-1.52-4.58-2.3-8.03-2.34-3.67,0-6.95.94-9.84,2.8-2.9,1.87-5.17,4.56-6.82,8.08-1.65,3.52-2.47,7.59-2.47,12.21s.81,8.78,2.42,12.26c1.61,3.48,3.87,6.18,6.76,8.08,2.9,1.91,6.18,2.86,9.84,2.86,3.7-.04,6.55-.94,8.55-2.69,2-1.76,3.55-3.72,4.65-5.88h.72c.14,1.5.65,2.88,1.59,4.15,1.1,1.48,2.61,2.67,4.54,3.55s4.08,1.32,6.46,1.32c3.74,0,7.13-1.08,10.17-3.24,3.04-2.16,5.43-5.29,7.15-9.38,1.72-4.09,2.58-8.9,2.58-14.44.04-7.84-1.77-14.94-5.42-21.28-3.65-6.34-8.82-11.31-15.51-14.9ZM207.51,57.63c-.86,2.27-2.19,4.05-3.99,5.33-1.8,1.28-3.98,1.92-6.54,1.92s-4.64-.68-6.43-2.03c-1.8-1.36-3.16-3.18-4.1-5.47-.94-2.29-1.38-4.89-1.35-7.78-.04-2.82.41-5.36,1.35-7.62.94-2.25,2.3-4.04,4.1-5.36,1.8-1.32,3.94-1.98,6.43-1.98s4.75.62,6.54,1.87c1.8,1.25,3.12,2.99,3.99,5.22.86,2.24,1.31,4.86,1.35,7.86-.04,3.08-.49,5.76-1.35,8.03Z"/><path class="cls-1" d="M282.88,50.48l-8.91-2.2c-3.48-.84-6.05-1.95-7.7-3.33-1.65-1.38-2.49-3.05-2.53-5.03,0-1.65.55-3.16,1.65-4.54,1.1-1.37,2.6-2.46,4.51-3.27,1.91-.81,4.07-1.21,6.49-1.21,3.37.04,6.06.78,8.06,2.23,2,1.45,3.34,3.46,4.04,6.02h9.24c-.4-3.23-1.51-6.07-3.33-8.52-1.81-2.46-4.26-4.36-7.34-5.72-3.08-1.36-6.64-2.03-10.67-2.03-4.33,0-8.16.75-11.49,2.25-3.34,1.5-5.94,3.59-7.81,6.27-1.87,2.68-2.8,5.7-2.8,9.07,0,4,1.37,7.37,4.1,10.12,2.73,2.75,6.68,4.73,11.85,5.94l9.02,2.09c3.37.81,5.85,1.91,7.42,3.3,1.58,1.39,2.36,3.15,2.36,5.28,0,1.87-.55,3.49-1.65,4.87-1.1,1.38-2.7,2.43-4.81,3.16-2.11.73-4.57,1.1-7.4,1.1-3.78.04-6.73-.66-8.85-2.09-2.13-1.43-3.46-3.59-4.01-6.49h-9.9c.51,3.63,1.74,6.7,3.68,9.21,1.94,2.51,4.54,4.41,7.78,5.69,3.24,1.28,7.08,1.92,11.52,1.92,4.88,0,9.08-.77,12.62-2.31,3.54-1.54,6.21-3.66,8.03-6.35,1.81-2.69,2.74-5.78,2.78-9.27-.04-4.14-1.38-7.56-4.01-10.26-2.64-2.69-6.62-4.66-11.93-5.91Z"/><path class="cls-1" d="M349.78,25.35c-3.06-1.65-6.66-2.47-10.81-2.47-4.55,0-8.25.88-11.11,2.64-2.86,1.76-5.02,4.25-6.49,7.48h-.77V3.74h-9.46v79.63h9.46v-35.85c0-3.37.68-6.29,2.03-8.74,1.36-2.46,3.19-4.31,5.5-5.55,2.31-1.25,4.97-1.87,7.97-1.87s5.32.57,7.37,1.7c2.05,1.14,3.63,2.81,4.73,5.03,1.1,2.22,1.65,4.89,1.65,8v37.28h9.46v-37.94c0-4.99-.82-9.16-2.47-12.54-1.65-3.37-4.01-5.88-7.07-7.53Z"/><path class="cls-1" d="M382.52,2.03c-1.03-.55-2.13-.82-3.3-.82s-2.32.27-3.33.82c-1.01.55-1.81,1.31-2.39,2.28-.59.97-.88,2.03-.88,3.16s.29,2.17.88,3.11c.59.94,1.38,1.7,2.39,2.28,1.01.59,2.12.88,3.33.88s2.27-.29,3.3-.88c1.03-.59,1.85-1.35,2.47-2.28.62-.93.94-1.97.94-3.11s-.31-2.19-.94-3.16c-.62-.97-1.45-1.73-2.47-2.28Z"/><rect class="cls-1" x="374.49" y="23.65" width="9.46" height="59.72"/><path class="cls-1" d="M420.03,0c-3.48,0-6.5.62-9.05,1.87-2.55,1.25-4.52,3.03-5.91,5.36-1.39,2.33-2.09,5.09-2.09,8.28v8.14h-9.57v7.92h9.57v51.8h9.57V31.57h13.2v-7.92h-13.2v-6.05c-.04-3.08.71-5.33,2.25-6.76,1.54-1.43,3.98-2.14,7.31-2.14h1.21c1.69.18,2.93.33,3.74.44V.66c-1.03-.18-2.17-.34-3.44-.47s-2.47-.19-3.6-.19Z"/><path class="cls-1" d="M460.36,75.06c-.71.04-1.4.06-2.06.06-1.54,0-2.88-.24-4.01-.72-1.14-.48-2.05-1.37-2.75-2.67-.7-1.3-1.04-3.14-1.04-5.53V31.57h12.54v-7.92h-12.54v-14.3h-9.57v14.3h-9.02v7.92h9.02v37.06c0,3.34.79,6.17,2.36,8.5,1.58,2.33,3.61,4.08,6.1,5.25,2.49,1.17,5.13,1.76,7.92,1.76,2.42,0,4.62-.15,6.6-.44v-8.8l-1.43.11c-.7,0-1.4.02-2.12.06Z"/><path class="cls-1" d="M515.99,26.62c-3.85-2.49-8.27-3.74-13.25-3.74-3.34,0-6.11.51-8.33,1.54-2.22,1.03-3.92,2.19-5.11,3.49-1.19,1.3-2.32,2.81-3.38,4.54-.15.15-.29.37-.44.66h-1.1v-9.46h-9.13v82.16h9.46v-31.56h.77l.22.33c1.06,1.76,2.21,3.32,3.44,4.67,1.23,1.36,2.99,2.58,5.28,3.68,2.29,1.1,5.1,1.65,8.44,1.65,4.95,0,9.34-1.27,13.17-3.79,3.83-2.53,6.81-6.12,8.94-10.78,2.12-4.66,3.19-10.1,3.19-16.33s-1.06-11.63-3.19-16.31c-2.13-4.67-5.12-8.26-8.96-10.75ZM516.76,65.06c-1.28,3.41-3.23,6.1-5.83,8.08-2.6,1.98-5.74,2.97-9.4,2.97s-6.65-.95-9.18-2.86c-2.53-1.91-4.46-4.55-5.8-7.95-1.34-3.39-2.03-7.34-2.06-11.85.04-4.47.71-8.38,2.01-11.71,1.3-3.34,3.22-5.9,5.75-7.7,2.53-1.8,5.63-2.69,9.29-2.69s6.85.95,9.43,2.86c2.58,1.91,4.52,4.53,5.8,7.86,1.28,3.34,1.93,7.13,1.93,11.38s-.64,8.19-1.93,11.6Z"/><path class="cls-1" d="M568.06,50.48l-8.91-2.2c-3.48-.84-6.05-1.95-7.7-3.33-1.65-1.38-2.49-3.05-2.53-5.03,0-1.65.55-3.16,1.65-4.54,1.1-1.37,2.6-2.46,4.51-3.27,1.91-.81,4.07-1.21,6.49-1.21,3.37.04,6.06.78,8.06,2.23,2,1.45,3.35,3.46,4.04,6.02h9.24c-.4-3.23-1.51-6.07-3.33-8.52-1.82-2.46-4.26-4.36-7.34-5.72-3.08-1.36-6.64-2.03-10.67-2.03-4.33,0-8.16.75-11.49,2.25-3.34,1.5-5.94,3.59-7.81,6.27-1.87,2.68-2.8,5.7-2.8,9.07,0,4,1.37,7.37,4.1,10.12,2.73,2.75,6.68,4.73,11.85,5.94l9.02,2.09c3.37.81,5.85,1.91,7.42,3.3,1.58,1.39,2.36,3.15,2.36,5.28,0,1.87-.55,3.49-1.65,4.87s-2.7,2.43-4.81,3.16c-2.11.73-4.57,1.1-7.4,1.1-3.78.04-6.73-.66-8.85-2.09-2.13-1.43-3.46-3.59-4.01-6.49h-9.9c.51,3.63,1.74,6.7,3.68,9.21,1.94,2.51,4.54,4.41,7.78,5.69,3.24,1.28,7.08,1.92,11.52,1.92,4.88,0,9.08-.77,12.62-2.31,3.54-1.54,6.21-3.66,8.03-6.35,1.81-2.69,2.74-5.78,2.78-9.27-.04-4.14-1.38-7.56-4.01-10.26-2.64-2.69-6.62-4.66-11.93-5.91Z"/><path class="cls-1" d="M634.96,25.35c-3.06-1.65-6.66-2.47-10.81-2.47-4.55,0-8.25.88-11.11,2.64-2.86,1.76-5.02,4.25-6.49,7.48h-.77V3.74h-9.46v79.63h9.46v-35.85c0-3.37.68-6.29,2.03-8.74,1.36-2.46,3.19-4.31,5.5-5.55,2.31-1.25,4.97-1.87,7.97-1.87s5.32.57,7.37,1.7c2.05,1.14,3.63,2.81,4.73,5.03,1.1,2.22,1.65,4.89,1.65,8v37.28h9.46v-37.94c0-4.99-.83-9.16-2.47-12.54-1.65-3.37-4.01-5.88-7.07-7.53Z"/><path class="cls-1" d="M669.94,70.77c-1.08-.62-2.26-.93-3.55-.93s-2.47.31-3.55.93c-1.08.62-1.94,1.48-2.58,2.58-.64,1.1-.94,2.27-.91,3.52-.04,1.28.27,2.47.91,3.55.64,1.08,1.5,1.95,2.58,2.61,1.08.66,2.26.99,3.55.99s2.46-.33,3.55-.99c1.08-.66,1.93-1.53,2.56-2.61.62-1.08.93-2.26.93-3.55s-.31-2.42-.93-3.52c-.62-1.1-1.48-1.96-2.56-2.58Z"/><path class="cls-1" d="M703.4,33.98c2.68-1.83,5.77-2.75,9.29-2.75,2.53,0,4.78.48,6.74,1.43,1.96.95,3.55,2.22,4.78,3.79,1.23,1.58,2.08,3.32,2.56,5.22h9.46c-.48-3.7-1.79-6.99-3.93-9.87-2.14-2.88-4.94-5.09-8.39-6.63-3.45-1.54-7.26-2.31-11.44-2.31-5.32,0-10.02,1.3-14.11,3.9-4.09,2.6-7.27,6.25-9.54,10.94-2.27,4.69-3.41,10.05-3.41,16.06s1.1,11.3,3.3,15.98c2.2,4.67,5.36,8.31,9.49,10.92,4.12,2.6,8.95,3.9,14.49,3.9,4.29,0,8.13-.81,11.52-2.42,3.39-1.61,6.11-3.85,8.17-6.71,2.05-2.86,3.34-6.08,3.85-9.68h-9.46c-.55,2.16-1.48,4.01-2.78,5.53-1.3,1.52-2.92,2.7-4.87,3.55-1.94.84-4.09,1.27-6.43,1.27-3.59,0-6.73-.94-9.4-2.8-2.68-1.87-4.75-4.51-6.21-7.92-1.47-3.41-2.2-7.39-2.2-11.93s.75-8.33,2.25-11.69c1.5-3.35,3.59-5.95,6.27-7.78Z"/><path class="cls-1" d="M786.49,26.73c-4.11-2.57-8.84-3.85-14.19-3.85s-10.15,1.28-14.27,3.85c-4.12,2.57-7.32,6.18-9.6,10.83-2.27,4.66-3.41,10.06-3.41,16.22s1.14,11.5,3.41,16.14c2.27,4.64,5.47,8.24,9.6,10.81,4.12,2.57,8.88,3.85,14.27,3.85s10.08-1.28,14.19-3.85c4.11-2.57,7.28-6.17,9.51-10.81,2.24-4.64,3.35-10.02,3.35-16.14s-1.12-11.57-3.35-16.22c-2.24-4.66-5.41-8.27-9.51-10.83ZM787.98,65.06c-1.28,3.41-3.25,6.12-5.91,8.14-2.66,2.02-5.91,3.02-9.76,3.02s-7.17-1.01-9.84-3.02c-2.68-2.02-4.67-4.73-5.97-8.14-1.3-3.41-1.97-7.17-2.01-11.27.04-4.11.71-7.86,2.01-11.27,1.3-3.41,3.29-6.14,5.97-8.19,2.67-2.05,5.96-3.08,9.84-3.08s7.1,1.03,9.76,3.08c2.66,2.05,4.63,4.78,5.91,8.19s1.92,7.17,1.92,11.27-.64,7.86-1.92,11.27Z"/><path class="cls-1" d="M888.23,32.01c-1.54-3.08-3.68-5.37-6.41-6.87-2.73-1.5-5.91-2.25-9.54-2.25-2.82,0-5.4.4-7.73,1.21-2.33.81-4.35,1.98-6.08,3.52-1.72,1.54-3.1,3.34-4.12,5.39h-.66c-.95-2.16-2.18-4-3.68-5.53-1.5-1.52-3.28-2.67-5.33-3.44-2.05-.77-4.36-1.15-6.93-1.15-3.89,0-7.22.89-10.01,2.67-2.79,1.78-4.8,4.26-6.05,7.45h-.77v-9.35h-9.13v59.72h9.46v-37.28c0-2.82.62-5.36,1.87-7.62,1.25-2.25,2.89-4,4.92-5.25,2.04-1.25,4.24-1.87,6.63-1.87s4.31.46,6.1,1.37c1.8.92,3.17,2.24,4.12,3.96.95,1.72,1.43,3.68,1.43,5.88v40.8h9.57v-38.82c.04-2.57.58-4.84,1.62-6.82,1.04-1.98,2.54-3.54,4.48-4.67,1.94-1.14,4.27-1.7,6.98-1.7,3.56,0,6.45,1,8.69,3,2.24,2,3.37,5.07,3.41,9.21v39.81h9.46v-39.92c0-4.55-.77-8.36-2.31-11.44Z"/></svg>