<?xml version="1.0" encoding="UTF-8"?><svg id="_레이어_1" xmlns="http://www.w3.org/2000/svg" viewBox="0 0 878.77 117.81"><defs><style>.cls-1{fill:#000;stroke-width:0px;}</style></defs><path class="cls-1" d="M729.95,92.46c-1.21-.73-2.16-1.7-2.88-2.91-.71-1.2-1.05-2.52-1.01-3.95-.04-1.39.3-2.69,1.01-3.92.71-1.22,1.67-2.18,2.88-2.88,1.2-.69,2.52-1.04,3.95-1.04s2.75.35,3.95,1.04c1.2.69,2.15,1.65,2.85,2.88.69,1.22,1.04,2.53,1.04,3.92s-.35,2.75-1.04,3.95c-.7,1.2-1.64,2.17-2.85,2.91-1.2.73-2.52,1.1-3.95,1.1s-2.75-.37-3.95-1.1Z"/><path class="cls-1" d="M33.92,56.21l-9.92-2.45c-3.88-.94-6.74-2.17-8.57-3.7s-2.78-3.4-2.82-5.6c0-1.84.61-3.52,1.84-5.05s2.9-2.74,5.02-3.64c2.12-.9,4.53-1.35,7.23-1.35,3.76.04,6.75.87,8.97,2.48,2.22,1.61,3.72,3.85,4.5,6.7h10.29c-.45-3.59-1.68-6.76-3.7-9.49-2.02-2.73-4.75-4.86-8.17-6.37-3.43-1.51-7.39-2.27-11.88-2.27-4.82,0-9.08.84-12.8,2.51-3.71,1.67-6.61,4-8.69,6.98-2.08,2.98-3.12,6.35-3.12,10.1,0,4.45,1.52,8.2,4.56,11.27,3.04,3.06,7.44,5.27,13.2,6.61l10.04,2.33c3.75.9,6.51,2.12,8.27,3.67,1.75,1.55,2.63,3.51,2.63,5.88,0,2.08-.61,3.89-1.84,5.42-1.22,1.53-3.01,2.7-5.36,3.52-2.35.82-5.09,1.22-8.24,1.22-4.2.04-7.49-.73-9.86-2.33-2.37-1.59-3.86-4-4.47-7.23H0c.57,4.04,1.94,7.46,4.1,10.26,2.16,2.8,5.05,4.91,8.66,6.34,3.61,1.43,7.89,2.14,12.83,2.14,5.43,0,10.11-.86,14.05-2.57,3.94-1.71,6.92-4.07,8.94-7.07,2.02-3,3.05-6.44,3.09-10.32-.04-4.61-1.53-8.42-4.47-11.42-2.94-3-7.37-5.19-13.29-6.58Z"/><path class="cls-1" d="M108.41,28.23c-3.41-1.84-7.42-2.76-12.03-2.76-5.06,0-9.18.98-12.37,2.94-3.18,1.96-5.59,4.74-7.23,8.33h-.86V4.16h-10.53v88.66h10.53v-39.92c0-3.76.75-7,2.27-9.74,1.51-2.73,3.55-4.8,6.12-6.18,2.57-1.39,5.53-2.08,8.88-2.08s5.92.63,8.21,1.9c2.29,1.27,4.04,3.13,5.27,5.6,1.22,2.47,1.84,5.44,1.84,8.91v41.51h10.53v-42.25c0-5.55-.92-10.2-2.76-13.96-1.84-3.76-4.46-6.55-7.87-8.39Z"/><rect class="cls-1" x="135.93" y="26.33" width="10.53" height="66.5"/><path class="cls-1" d="M144.87,2.27c-1.14-.61-2.37-.92-3.67-.92s-2.58.31-3.7.92c-1.12.61-2.01,1.46-2.66,2.54-.65,1.08-.98,2.26-.98,3.52s.33,2.42.98,3.46c.65,1.04,1.54,1.89,2.66,2.54,1.12.65,2.36.98,3.7.98s2.53-.33,3.67-.98c1.14-.65,2.06-1.5,2.76-2.54.69-1.04,1.04-2.19,1.04-3.46s-.35-2.44-1.04-3.52c-.69-1.08-1.61-1.93-2.76-2.54Z"/><path class="cls-1" d="M186.63,0c-3.88,0-7.24.69-10.07,2.08-2.84,1.39-5.03,3.38-6.58,5.97-1.55,2.59-2.33,5.66-2.33,9.22v9.06h-10.65v8.82h10.65v57.68h10.65v-57.68h14.7v-8.82h-14.7v-6.74c-.04-3.43.8-5.94,2.51-7.53,1.71-1.59,4.43-2.39,8.14-2.39h1.35c1.88.21,3.27.37,4.16.49V.73c-1.14-.2-2.42-.38-3.83-.52-1.41-.14-2.75-.21-4.01-.21Z"/><path class="cls-1" d="M231.54,83.58c-.8.04-1.56.06-2.3.06-1.71,0-3.21-.27-4.47-.8-1.27-.53-2.29-1.52-3.06-2.97-.78-1.45-1.16-3.5-1.16-6.15v-38.58h13.96v-8.82h-13.96v-15.92h-10.65v15.92h-10.04v8.82h10.04v41.27c0,3.71.88,6.87,2.63,9.46,1.75,2.59,4.02,4.54,6.8,5.85,2.78,1.31,5.71,1.96,8.82,1.96,2.69,0,5.14-.16,7.35-.49v-9.8l-1.59.12c-.78,0-1.56.02-2.36.06Z"/><path class="cls-1" d="M320.32,11.27c-7.45-4-15.97-6-25.56-6s-17.78,2.14-25.17,6.43c-7.39,4.29-13.17,10.25-17.36,17.88-4.18,7.63-6.26,16.23-6.21,25.78,0,10.29,1.94,19.21,5.82,26.76,3.88,7.55,9.44,13.35,16.69,17.39,7.25,4.04,15.83,6.06,25.75,6.06,3.88,0,7.61-.25,11.21-.73,3.59-.49,7.08-1.18,10.47-2.08v-8.33c-3.59.98-6.98,1.65-10.16,2.02-3.18.37-7.02.59-11.51.67-8.45.08-15.62-1.61-21.52-5.08-5.9-3.47-10.36-8.35-13.38-14.63-3.02-6.29-4.53-13.63-4.53-22.04.04-7.59,1.72-14.57,5.05-20.94,3.33-6.37,8-11.4,14.02-15.09,6.02-3.69,12.97-5.56,20.85-5.6,7.76,0,14.7,1.59,20.82,4.78,6.12,3.18,10.87,7.66,14.24,13.44,3.37,5.78,5.03,12.44,4.99,19.99,0,4.2-.53,7.93-1.59,11.17-1.06,3.25-2.56,5.79-4.5,7.62-1.94,1.84-4.15,2.76-6.64,2.76-1.96.04-3.45-.53-4.47-1.71-1.02-1.18-1.57-2.98-1.65-5.39V30.62h-9.31v7.47h-.61c-1.22-2.2-2.9-4.15-5.02-5.85-2.12-1.69-5.1-2.56-8.94-2.6-4.08,0-7.74,1.04-10.96,3.12-3.23,2.08-5.76,5.08-7.59,9-1.84,3.92-2.76,8.45-2.76,13.59s.9,9.78,2.69,13.65c1.8,3.88,4.31,6.88,7.53,9,3.22,2.12,6.88,3.18,10.96,3.18,4.12-.04,7.3-1.04,9.52-3,2.22-1.96,3.95-4.14,5.17-6.55h.78c.15,1.67.75,3.21,1.79,4.62,1.22,1.65,2.91,2.97,5.05,3.95,2.14.98,4.54,1.47,7.19,1.47,4.16,0,7.94-1.2,11.33-3.61,3.39-2.41,6.04-5.89,7.96-10.44,1.92-4.55,2.88-9.91,2.88-16.07.04-8.73-1.97-16.63-6.03-23.7-4.06-7.06-9.82-12.59-17.27-16.59ZM305.26,64.17c-.96,2.53-2.44,4.51-4.44,5.94-2,1.43-4.43,2.14-7.29,2.14s-5.16-.75-7.16-2.27c-2-1.51-3.52-3.54-4.56-6.09-1.04-2.55-1.54-5.44-1.5-8.66-.04-3.14.46-5.97,1.5-8.48,1.04-2.51,2.56-4.5,4.56-5.97,2-1.47,4.39-2.2,7.16-2.2s5.29.69,7.29,2.08c2,1.39,3.48,3.33,4.44,5.82.96,2.49,1.46,5.41,1.5,8.76-.04,3.43-.54,6.41-1.5,8.94Z"/><path class="cls-1" d="M389.18,56.21l-9.92-2.45c-3.88-.94-6.74-2.17-8.57-3.7s-2.78-3.4-2.82-5.6c0-1.84.61-3.52,1.84-5.05s2.9-2.74,5.02-3.64c2.12-.9,4.53-1.35,7.22-1.35,3.75.04,6.75.87,8.97,2.48,2.22,1.61,3.72,3.85,4.5,6.7h10.29c-.45-3.59-1.68-6.76-3.71-9.49-2.02-2.73-4.75-4.86-8.17-6.37-3.43-1.51-7.39-2.27-11.88-2.27-4.82,0-9.08.84-12.8,2.51-3.71,1.67-6.61,4-8.69,6.98-2.08,2.98-3.12,6.35-3.12,10.1,0,4.45,1.52,8.2,4.56,11.27,3.04,3.06,7.44,5.27,13.2,6.61l10.04,2.33c3.76.9,6.51,2.12,8.27,3.67,1.75,1.55,2.63,3.51,2.63,5.88,0,2.08-.61,3.89-1.84,5.42-1.22,1.53-3.01,2.7-5.36,3.52-2.35.82-5.09,1.22-8.24,1.22-4.21.04-7.49-.73-9.86-2.33-2.37-1.59-3.86-4-4.47-7.23h-11.02c.57,4.04,1.94,7.46,4.1,10.26,2.16,2.8,5.05,4.91,8.66,6.34,3.61,1.43,7.89,2.14,12.83,2.14,5.43,0,10.11-.86,14.05-2.57,3.94-1.71,6.92-4.07,8.94-7.07,2.02-3,3.05-6.44,3.09-10.32-.04-4.61-1.53-8.42-4.47-11.42-2.94-3-7.37-5.19-13.29-6.58Z"/><path class="cls-1" d="M463.63,29.76c-4.57-2.86-9.84-4.29-15.8-4.29s-11.3,1.43-15.89,4.29c-4.59,2.86-8.15,6.88-10.68,12.06-2.53,5.18-3.8,11.21-3.8,18.06s1.26,12.81,3.8,17.97c2.53,5.16,6.09,9.17,10.68,12.03,4.59,2.86,9.89,4.29,15.89,4.29s11.23-1.43,15.8-4.29c4.57-2.86,8.1-6.87,10.59-12.03,2.49-5.16,3.73-11.15,3.73-17.97s-1.25-12.88-3.73-18.06c-2.49-5.18-6.02-9.2-10.59-12.06ZM465.29,72.44c-1.43,3.8-3.62,6.82-6.58,9.06-2.96,2.25-6.58,3.37-10.87,3.37s-7.98-1.12-10.96-3.37c-2.98-2.24-5.2-5.27-6.64-9.06-1.45-3.8-2.19-7.98-2.24-12.55.04-4.57.79-8.76,2.24-12.55,1.45-3.8,3.66-6.84,6.64-9.12,2.98-2.29,6.63-3.43,10.96-3.43s7.91,1.14,10.87,3.43c2.96,2.29,5.15,5.33,6.58,9.12,1.43,3.8,2.14,7.98,2.14,12.55s-.71,8.76-2.14,12.55Z"/><rect class="cls-1" x="491.8" y="4.16" width="10.53" height="88.66"/><polygon class="cls-1" points="544.21 79.11 543.48 79.11 525.35 26.33 513.84 26.33 538.33 92.82 549.23 92.82 573.85 26.33 562.34 26.33 544.21 79.11"/><path class="cls-1" d="M624.03,28.78c-4.35-2.2-9.03-3.31-14.05-3.31-5.96,0-11.21,1.45-15.74,4.35-4.53,2.9-8.06,6.98-10.59,12.25-2.53,5.27-3.8,11.29-3.8,18.06s1.26,12.74,3.8,17.88c2.53,5.14,6.13,9.12,10.81,11.94,4.67,2.82,10.17,4.23,16.5,4.23,4.49,0,8.57-.69,12.25-2.08s6.74-3.36,9.18-5.91c2.45-2.55,4.2-5.52,5.27-8.91h-11.27c-.86,1.43-1.99,2.7-3.4,3.83-1.41,1.12-3.13,2.03-5.17,2.72-2.04.69-4.33,1.04-6.86,1.04-4.08,0-7.65-.9-10.71-2.69-3.06-1.8-5.47-4.43-7.22-7.9-1.59-3.15-2.45-6.88-2.6-11.21h48.22v-4.41c0-7.75-1.35-14.12-4.04-19.1-2.69-4.98-6.21-8.57-10.56-10.78ZM590.45,54.13c.23-3.08,1.03-6,2.41-8.76,1.61-3.22,3.89-5.8,6.83-7.71,2.94-1.92,6.37-2.88,10.29-2.88,3.59,0,6.76.84,9.49,2.51,2.73,1.67,4.84,3.98,6.31,6.92s2.2,6.25,2.2,9.92h-37.52Z"/><path class="cls-1" d="M697.53,36.86h-.74c-.12-.16-.2-.29-.24-.37-.04-.08-.12-.2-.25-.37-1.14-1.88-2.37-3.55-3.67-5.02-1.31-1.47-3.21-2.78-5.73-3.92-2.51-1.14-5.62-1.71-9.34-1.71-5.55,0-10.47,1.39-14.76,4.16-4.29,2.78-7.63,6.77-10.04,11.97s-3.61,11.26-3.61,18.15,1.2,13,3.61,18.19c2.41,5.18,5.75,9.18,10.01,12,4.26,2.82,9.15,4.23,14.66,4.23,3.71,0,6.83-.59,9.34-1.78s4.44-2.53,5.79-4.04c1.35-1.51,2.63-3.25,3.86-5.2l.37-.49h1.1v10.16h10.29V4.16h-10.65v32.7ZM695.66,72.71c-1.45,3.78-3.6,6.73-6.46,8.85-2.86,2.12-6.29,3.18-10.29,3.18s-7.55-1.1-10.41-3.31c-2.86-2.2-5.02-5.2-6.49-9s-2.2-8.1-2.2-12.92.71-8.96,2.14-12.67c1.43-3.71,3.58-6.63,6.46-8.76,2.88-2.12,6.38-3.18,10.5-3.18s7.48,1,10.32,3c2.84,2,4.98,4.87,6.43,8.6,1.45,3.73,2.19,8.07,2.24,13.01-.04,5.02-.79,9.42-2.24,13.19Z"/><path class="cls-1" d="M794.83,27.19c-3.71-1.14-7.49-1.71-11.33-1.71-4.82,0-9.14.76-12.98,2.27-3.84,1.51-6.93,3.64-9.28,6.4s-3.75,5.91-4.19,9.46h11.02c.78-2.65,2.45-4.81,5.02-6.46,2.57-1.65,5.88-2.48,9.92-2.48,3.31,0,6.09.51,8.36,1.53,2.26,1.02,3.95,2.54,5.05,4.56,1.1,2.02,1.65,4.44,1.65,7.26v5.41c-1.35.03-2.69.07-4.04.1-2.41.12-4.86.26-7.35.4-2.49.14-4.69.3-6.61.46-7.23.53-13.2,2.21-17.91,5.05-4.71,2.84-7.07,7.68-7.07,14.54,0,4.21,1,7.85,3,10.93,2,3.08,4.71,5.43,8.14,7.04,3.43,1.61,7.27,2.44,11.51,2.48,5.22-.04,9.5-1.13,12.83-3.28,3.33-2.14,5.66-4.6,7.01-7.38h.49v9.06h10.41v-43.84c0-6.41-1.35-11.36-4.04-14.85s-5.9-5.81-9.61-6.95ZM795.87,76.72c-1.47,2.49-3.6,4.49-6.4,6-2.8,1.51-6.09,2.27-9.89,2.27-2.74.04-5.13-.34-7.19-1.13-2.06-.8-3.71-1.99-4.93-3.58-1.22-1.59-1.84-3.53-1.84-5.82.04-3.51,1.42-6.18,4.13-8.02,2.71-1.84,6.56-2.92,11.54-3.25,2.37-.16,4.73-.33,7.1-.49,2.33-.16,4.07-.29,5.23-.37,1.01-.07,2.51-.17,4.44-.31v6.68c0,2.86-.73,5.53-2.2,8.02Z"/><path class="cls-1" d="M865.15,79.38c-1.45,1.69-3.26,3.01-5.42,3.95-2.16.94-4.55,1.41-7.16,1.41-4,0-7.49-1.04-10.47-3.12s-5.29-5.02-6.92-8.82c-1.63-3.8-2.45-8.23-2.45-13.29s.84-9.28,2.51-13.01c1.67-3.74,4-6.62,6.98-8.66,2.98-2.04,6.43-3.06,10.35-3.06,2.82,0,5.32.53,7.5,1.59,2.18,1.06,3.96,2.47,5.33,4.23,1.37,1.76,2.32,3.69,2.85,5.82h10.53c-.53-4.12-1.99-7.79-4.38-10.99-2.39-3.2-5.5-5.66-9.34-7.38-3.84-1.71-8.08-2.57-12.74-2.57-5.92,0-11.15,1.45-15.71,4.35-4.55,2.9-8.09,6.96-10.62,12.18-2.53,5.23-3.8,11.19-3.8,17.88s1.22,12.58,3.67,17.79,5.97,9.26,10.56,12.15c4.59,2.9,9.97,4.35,16.13,4.35,4.78,0,9.05-.9,12.83-2.69,3.77-1.8,6.81-4.29,9.09-7.47,2.29-3.18,3.71-6.78,4.29-10.78h-10.53c-.61,2.41-1.64,4.46-3.09,6.15Z"/></svg>