<?xml version="1.0" encoding="UTF-8"?><svg id="shiftpsh" xmlns="http://www.w3.org/2000/svg" viewBox="0 0 1600 900"><defs><style>.cls-1{fill:#ffa71a;}.cls-1,.cls-2,.cls-3,.cls-4,.cls-5{stroke-width:0px;}.cls-2{fill:#ffb717;}.cls-3{fill:#ff3b57;}.cls-4{fill:#0b1b38;}.cls-5{fill:#fff;}</style></defs><rect class="cls-4" width="1600" height="900"/><path class="cls-5" d="M832.41,454.67c-5.24-1.69-10.06-3.04-10.06-6.34v-.17c0-2.45,2.28-4.4,6.26-4.4,3.72,0,8.29,1.61,12.6,4.23l4.06-7.27c-4.73-3.13-10.82-5.07-16.4-5.07-8.88,0-15.89,5.16-15.89,13.7v.17c0,8.45,7.35,11.16,13.95,13.02,5.24,1.61,9.98,2.79,9.98,6.26v.17c0,2.96-2.54,4.82-6.93,4.82s-9.72-1.86-14.63-5.5l-4.57,6.93c5.58,4.48,12.6,6.68,18.94,6.68,9.3,0,16.57-4.65,16.57-14.03v-.17c0-8.03-7.35-10.99-13.86-13.02Z"/><path class="cls-5" d="M876.71,435.48c-6.93,0-11.08,3.64-13.95,7.78v-23.93h-10.31v61.72h10.31v-25.19c0-6.93,4.14-11.07,10.06-11.07s9.55,3.97,9.55,10.91v25.36h10.23v-28.49c0-10.31-5.83-17.08-15.89-17.08Z"/><rect class="cls-5" x="901.22" y="436.41" width="10.31" height="44.64"/><rect class="cls-5" x="900.88" y="419.84" width="10.99" height="9.72"/><path class="cls-5" d="M972.57,445.2v-8.79h-12.01v-12.26h-10.23v12.26h-17.33v-2.11c0-4.57,2.03-6.76,5.92-6.76,2.2,0,3.97.42,6,1.1v-8.62c-2.28-.68-4.73-1.18-8.37-1.18-4.31,0-7.61,1.18-9.98,3.55-2.37,2.37-3.64,6.09-3.64,10.99v3.04h-5.66v8.79h5.66v35.85h10.23v-35.85h17.16v23.5c0,9.81,5.33,13.1,12.85,13.1,3.89,0,6.68-.85,9.21-2.28v-8.37c-2.03,1.01-4.06,1.52-6.34,1.52-3.47,0-5.5-1.61-5.5-5.58v-21.9h12.01Z"/><path class="cls-2" d="M724.27,405.88h0c2.43,2.43,4.06,5.37,4.9,8.46l.05.08,18.18,68.61,11.66,11.66c7.46,7.46,19.55,7.46,27.01,0h0c7.46-7.46,7.46-19.55,0-27.01l-61.8-61.8Z"/><polygon class="cls-2" points="710.77 446.4 724.95 460.57 710.77 446.4 710.77 446.4"/><polygon class="cls-1" points="724.27 405.88 724.27 405.88 724.27 405.88 724.27 405.88 724.27 405.88"/><path class="cls-1" d="M729.22,414.42l-.05-.08c1.74,6.4.12,13.52-4.9,18.55l-13.51,13.51,36.64,36.64h0s-18.18-68.61-18.18-68.61Z"/><path class="cls-3" d="M724.27,405.88h0c-7.46-7.46-19.55-7.46-27.01,0l-61.8,61.8c-7.46,7.46-7.46,19.55,0,27.01,7.46,7.46,19.55,7.46,27.01,0l61.8-61.8c7.46-7.46,7.46-19.55,0-27.01Z"/></svg>