<svg xmlns="http://www.w3.org/2000/svg" viewBox="0 0 128 128"><defs><style>.cls-1{fill:#ff3b57;}.cls-2{fill:#fff;}</style></defs><title>asksftsh</title><g id="레이어_2" data-name="레이어 2"><path class="cls-2" d="M71.63,52.12l1.42-4.39,8,2.59V42h4.61v8.36l8-2.59L95,52.1l-8,2.59L92,61.45l-3.73,2.72L83.32,57.4,78.4,64.18l-3.73-2.71,4.91-6.77Z"/><path class="cls-2" d="M54.84,56a10.34,10.34,0,0,1,4.08,5.11V54.5h8V86.32h-8V79.66a10.55,10.55,0,0,1-4.08,5.14,12.15,12.15,0,0,1-6.9,1.92,13.64,13.64,0,0,1-7.23-2,13.13,13.13,0,0,1-5-5.66,19.56,19.56,0,0,1-1.81-8.7,19.53,19.53,0,0,1,1.81-8.7,13.13,13.13,0,0,1,5-5.66,13.65,13.65,0,0,1,7.23-2A12.22,12.22,0,0,1,54.84,56ZM44.38,63.63a9.58,9.58,0,0,0-2.29,6.78,9.47,9.47,0,0,0,2.29,6.75,8,8,0,0,0,6.09,2.44,8,8,0,0,0,6.06-2.5,9.27,9.27,0,0,0,2.39-6.69,9.39,9.39,0,0,0-2.39-6.75,8,8,0,0,0-6.06-2.5,7.94,7.94,0,0,0-6.09,2.47Z"/></g></svg>