<?xml version="1.0" encoding="utf-8"?>
<!-- Generator: Adobe Illustrator 25.0.1, SVG Export Plug-In . SVG Version: 6.00 Build 0)  -->
<svg version="1.1" id="레이어_1" xmlns="http://www.w3.org/2000/svg" xmlns:xlink="http://www.w3.org/1999/xlink" x="0px"
	 y="0px" viewBox="0 0 128 128" style="enable-background:new 0 0 128 128;" xml:space="preserve">
<style type="text/css">
	.st0{fill:#FFFFFF;}
</style>
<g>
	<path class="st0" d="M65.6,63.6L65.6,63.6c1-5.5,5.7-9.6,11.5-9.6c4,0,7.5,2,9.6,5.1h5.8c-2.6-6-8.5-10.2-15.4-10.2
		c-6.5,0-12.2,3.7-14.9,9.2L65.6,63.6z"/>
	<path class="st0" d="M86.8,72.1c-2.1,3.1-5.6,5.2-9.7,5.2c-4.1,0-7.6-2.1-9.7-5.2l0,0l-7-12.9h0l-7.4-13.6L35.4,81.9H41l12-25.4
		l8.8,16c0.3,0.8,0.7,1.5,1.2,2.2l0,0l0,0c3,4.6,8.2,7.6,14,7.6c7,0,12.9-4.2,15.5-10.3H86.8z"/>
</g>
</svg>
