<svg xmlns="http://www.w3.org/2000/svg" viewBox="0 0 128 128"><defs><style>.cls-1{fill:#1769ff;}.cls-2{fill:#fff;}.cls-3{fill:none;}</style></defs><title>behance</title><g id="레이어_2" data-name="레이어 2"><path class="cls-2" d="M84.21,64.72A5.14,5.14,0,0,0,82.56,61a5.44,5.44,0,0,0-3.68-1.28A4.91,4.91,0,0,0,75.17,61a6.35,6.35,0,0,0-1.65,3.68m16.93-.61a27.49,27.49,0,0,1,.22,4.72H73.33c.14,2.4.94,4,2.51,5a6.15,6.15,0,0,0,3.44.91,5,5,0,0,0,3.39-1.1A4.65,4.65,0,0,0,84,72h6.35A7.58,7.58,0,0,1,88,76.32c-2.08,2.35-5.07,3.47-8.91,3.47a13.21,13.21,0,0,1-8.42-2.94c-2.35-1.94-3.58-5.12-3.58-9.52,0-4.13,1.1-7.33,3.28-9.46a11.41,11.41,0,0,1,8.51-3.31,13.36,13.36,0,0,1,5.57,1.12,9.47,9.47,0,0,1,4.11,3.52,11.42,11.42,0,0,1,1.89,4.91m-32.9,5.41A3.6,3.6,0,0,0,55.44,66a9.75,9.75,0,0,0-3.33-.62H45v8.91h7a7.67,7.67,0,0,0,3.36-.59c1.47-.72,2.19-2.1,2.19-4.13M45,59.89h7a6.48,6.48,0,0,0,3.52-.82,3.09,3.09,0,0,0,1.33-2.91,3,3,0,0,0-1.76-3.07,12.8,12.8,0,0,0-3.92-.5H45M63.25,65.12A8.77,8.77,0,0,1,64.53,70a10.11,10.11,0,0,1-1.46,5.31A9.1,9.1,0,0,1,57,79.55a23.57,23.57,0,0,1-4.67.45h-15V46.8h16c4.08.08,6.94,1.2,8.62,3.55a8.45,8.45,0,0,1,1.52,5.06A7.42,7.42,0,0,1,62,60.29a8.18,8.18,0,0,1-2.54,1.9,7.54,7.54,0,0,1,3.84,2.93m22.24-13.6H72.13V48.19H85.49Z"/><rect class="cls-3" x="32" y="32" width="64" height="64"/></g></svg>