<svg xmlns="http://www.w3.org/2000/svg" viewBox="0 0 128 128"><defs><style>.cls-1{fill:#ffb400;}.cls-2{fill:none;}.cls-3{fill:#fff;}</style></defs><title>blog</title><g id="레이어_2" data-name="레이어 2"><path class="cls-2" d="M32,32H96V96H32Z"/><path class="cls-3" d="M66.67,77.33H45.33a2.67,2.67,0,0,0,0,5.34H66.67a2.67,2.67,0,0,0,0-5.34ZM82.67,56H45.33a2.67,2.67,0,0,0,0,5.33H82.67a2.67,2.67,0,0,0,0-5.33ZM45.33,72H82.67a2.67,2.67,0,0,0,0-5.33H45.33a2.67,2.67,0,0,0,0,5.33ZM42.67,48a2.67,2.67,0,0,0,2.66,2.67H82.67a2.67,2.67,0,0,0,0-5.34H45.33A2.67,2.67,0,0,0,42.67,48Z"/></g></svg>