<svg xmlns="http://www.w3.org/2000/svg" viewBox="0 0 128 128"><defs><style>.cls-1{fill:#0077c6;}.cls-2{fill:#fff;}</style></defs><title>boj</title><g id="레이어_2" data-name="레이어 2"><polygon class="cls-2" points="74.77 81.09 91.62 63.73 75.15 46.78 80.08 46.78 96.7 63.83 79.85 81.09 74.77 81.09"/><path class="cls-2" d="M79.87,47.28,96,63.83,79.64,80.59H76L92.32,63.73l-16-16.45h3.54m.42-1H74L75.62,48,90.93,63.73,75.33,79.8l-.09.09-1.65,1.7h6.47l.29-.3,6.79-7,9.58-9.81.68-.7-.68-.7-3.58-3.67L80.59,46.58l-.3-.3Z"/><polygon class="cls-2" points="64.7 81.03 47.92 63.83 64.61 46.7 69.52 46.7 52.98 63.75 69.81 81.03 64.7 81.03"/><path class="cls-2" d="M68.34,47.2,52.29,63.75,68.63,80.54H64.91Q57,72.38,48.62,63.83L64.82,47.2h3.52m2.36-1H64.4l-.3.31L52.51,58.41l-4.6,4.72-.68.7.68.7L64.2,81.23l.29.31H71l-1.65-1.7-12-12.28-3.71-3.81L62,55.21l7.1-7.31,1.64-1.7Z"/><polygon class="cls-2" points="31.53 86.5 43.47 41.92 47.12 41.92 35.19 86.5 31.53 86.5"/><path class="cls-2" d="M46.47,42.42C42.56,57,38.69,71.46,34.8,86H32.18C36.09,71.39,40,57,43.85,42.42h2.62m1.3-1H43.08l-.2.74L39.83,53.57,31.21,85.74,30.88,87h4.69l.2-.75L47.44,42.68l.33-1.26Z"/></g></svg>