<svg xmlns="http://www.w3.org/2000/svg" viewBox="0 0 128 128"><defs><style>.cls-1{fill:#0084cc;}.cls-2{fill:none;}.cls-3{fill:#fff;}</style></defs><title>codeforces</title><g id="레이어_2" data-name="레이어 2"><path class="cls-2" d="M32,32H96V96H32Z"/><path class="cls-3" d="M49.07,56.53h.53a3.75,3.75,0,0,1,3.73,3.74V78.93a3.75,3.75,0,0,1-3.73,3.74h-.53a3.75,3.75,0,0,1-3.74-3.74V60.27A3.75,3.75,0,0,1,49.07,56.53ZM64,45.33a3.75,3.75,0,0,1,3.73,3.74V78.93a3.73,3.73,0,1,1-7.46,0V49.07A3.75,3.75,0,0,1,64,45.33ZM78.93,66.67a3.75,3.75,0,0,1,3.74,3.73v8.53a3.74,3.74,0,1,1-7.47,0V70.4A3.74,3.74,0,0,1,78.93,66.67Z"/></g></svg>