<svg xmlns="http://www.w3.org/2000/svg" viewBox="0 0 128 128"><defs><style>.cls-1{fill:#fff;}</style></defs><g id="레이어_2" data-name="레이어 2"><path class="cls-1" d="M47.526,56.674A25.408,25.408,0,0,1,40.8,45.44h5.987q-.121-1.349-.188-2.8H37.646c0,7.5,6.778,16.986,15.162,21.567a34.135,34.135,0,0,1-2.843-5.3A30.526,30.526,0,0,1,47.526,56.674Z"/><path class="cls-1" d="M87.2,45.44a25.408,25.408,0,0,1-6.725,11.234c-.516.526-1.049,1.019-1.589,1.5a33.891,33.891,0,0,1-2.832,5.542c7.982-4.742,14.3-13.833,14.3-21.075H81.946q-.066,1.454-.188,2.8Z"/><path class="cls-1" d="M67.558,73.514c.319-7.229,12.131-9.387,12.131-34.273H48.857c0,24.886,11.812,27.044,12.131,34.273ZM57.525,42.637S56.437,52.413,63,65.773c-6.37-6.524-9.1-17.839-9.1-23.136Z"/><path class="cls-1" d="M67.662,75.43H60.884c-.649,4.691-4.086,7.723-8.29,7.723v5.606H75.952V83.153C71.748,83.153,68.311,80.121,67.662,75.43Z"/></g></svg>