<svg xmlns="http://www.w3.org/2000/svg" viewBox="0 0 128 128"><defs><style>.cls-1{fill:#333;}.cls-2{fill:#fff;}.cls-3{fill:none;}</style></defs><title>github</title><g id="레이어_2" data-name="레이어 2"><path class="cls-2" d="M64,37.33a26.69,26.69,0,0,0-8.43,52c1.34.22,1.76-.61,1.76-1.33V83.49c-7.38,1.6-9-3.57-9-3.57-1.22-3.09-3-3.92-3-3.92-2.42-1.65.19-1.6.19-1.6a5.61,5.61,0,0,1,4.08,2.75c2.32,4,6.24,2.85,7.76,2.21a5.72,5.72,0,0,1,1.68-3.57C53.2,75.12,47,72.83,47,62.67a10.34,10.34,0,0,1,2.74-7.23,9.56,9.56,0,0,1,.27-7s2.24-.72,7.33,2.72a25.72,25.72,0,0,1,13.34,0C75.76,47.68,78,48.4,78,48.4a9.56,9.56,0,0,1,.27,7A10.34,10.34,0,0,1,81,62.67c0,10.18-6.24,12.42-12.18,13.09a6.36,6.36,0,0,1,1.84,4.93V88c0,.72.42,1.57,1.78,1.33a26.69,26.69,0,0,0-8.45-52Z"/><rect class="cls-3" x="32" y="32" width="64" height="64"/></g></svg>