<?xml version="1.0" encoding="utf-8"?>
<!-- Generator: Adobe Illustrator 25.0.1, SVG Export Plug-In . SVG Version: 6.00 Build 0)  -->
<svg version="1.1" id="레이어_1" xmlns="http://www.w3.org/2000/svg" xmlns:xlink="http://www.w3.org/1999/xlink" x="0px"
	 y="0px" viewBox="0 0 128 128" style="enable-background:new 0 0 128 128;" xml:space="preserve">
<style type="text/css">
	.st0{fill:#FFFFFF;}
</style>
<g>
	<g>
		<path class="st0" d="M34.3,54.5v19.4h-3.2V54.5H34.3z"/>
		<path class="st0" d="M50.9,57.9c-0.8-0.7-1.9-1-3.2-1c-1.1,0-2.1,0.2-2.9,0.6c-0.8,0.4-1.4,1-1.9,1.7c-0.5,0.7-0.8,1.5-1,2.4
			c-0.2,0.9-0.3,1.9-0.3,2.8c0,0.9,0.1,1.8,0.3,2.6c0.2,0.8,0.5,1.6,1,2.3c0.4,0.7,1,1.2,1.8,1.6c0.7,0.4,1.6,0.6,2.6,0.6
			c1.6,0,2.8-0.4,3.7-1.2c0.9-0.8,1.4-2,1.6-3.5h3.3c-0.4,2.4-1.2,4.2-2.7,5.5c-1.4,1.3-3.4,1.9-5.9,1.9c-1.5,0-2.8-0.2-3.9-0.7
			c-1.1-0.5-2.1-1.1-2.8-2c-0.8-0.9-1.3-1.9-1.7-3.1c-0.4-1.2-0.6-2.5-0.6-4c0-1.4,0.2-2.8,0.6-4.1c0.4-1.3,0.9-2.4,1.7-3.3
			c0.8-0.9,1.7-1.7,2.9-2.2c1.1-0.5,2.5-0.8,4-0.8c1.1,0,2.1,0.1,3.1,0.4c1,0.3,1.8,0.7,2.5,1.2c0.7,0.5,1.3,1.2,1.8,2.1
			c0.5,0.8,0.8,1.8,0.9,3h-3.3C52.2,59.5,51.7,58.6,50.9,57.9z"/>
		<path class="st0" d="M62.7,54.5v2.6h0.1c0.5-1.1,1.3-1.9,2.5-2.3s2.4-0.7,3.7-0.7c1.5,0,2.8,0.3,3.9,0.8c1.1,0.5,2,1.3,2.8,2.2
			c0.7,0.9,1.3,2,1.7,3.2c0.4,1.2,0.6,2.5,0.6,3.9c0,1.4-0.2,2.7-0.5,3.9c-0.4,1.2-0.9,2.3-1.6,3.2C75,72.3,74,73,72.9,73.6
			c-1.1,0.5-2.4,0.8-3.9,0.8c-0.5,0-1-0.1-1.6-0.1c-0.6-0.1-1.2-0.3-1.7-0.5c-0.6-0.2-1.1-0.5-1.6-0.9c-0.5-0.4-0.9-0.9-1.3-1.4
			h-0.1v10h-3.2V54.5H62.7z M74.2,61.4c-0.2-0.9-0.6-1.6-1.1-2.3c-0.5-0.7-1.1-1.2-1.9-1.6c-0.8-0.4-1.7-0.6-2.7-0.6
			c-1.1,0-2,0.2-2.7,0.6c-0.8,0.4-1.4,1-1.8,1.7c-0.5,0.7-0.8,1.5-1,2.3c-0.2,0.9-0.3,1.8-0.3,2.7c0,1,0.1,1.9,0.3,2.8
			c0.2,0.9,0.6,1.7,1.1,2.3c0.5,0.7,1.1,1.2,1.9,1.6c0.8,0.4,1.7,0.6,2.8,0.6c1.1,0,2-0.2,2.8-0.6c0.7-0.4,1.3-1,1.8-1.7
			c0.5-0.7,0.8-1.5,1-2.4c0.2-0.9,0.3-1.8,0.3-2.8C74.5,63.2,74.4,62.3,74.2,61.4z"/>
		<path class="st0" d="M93.2,57.9c-0.8-0.7-1.9-1-3.2-1c-1.1,0-2.1,0.2-2.9,0.6c-0.8,0.4-1.4,1-1.9,1.7c-0.5,0.7-0.8,1.5-1,2.4
			c-0.2,0.9-0.3,1.9-0.3,2.8c0,0.9,0.1,1.8,0.3,2.6c0.2,0.8,0.5,1.6,1,2.3c0.4,0.7,1,1.2,1.8,1.6c0.7,0.4,1.6,0.6,2.6,0.6
			c1.6,0,2.8-0.4,3.7-1.2c0.9-0.8,1.4-2,1.6-3.5h3.3c-0.3,2.4-1.2,4.2-2.7,5.5c-1.4,1.3-3.4,1.9-5.9,1.9c-1.5,0-2.8-0.2-3.9-0.7
			c-1.1-0.5-2.1-1.1-2.8-2c-0.8-0.9-1.3-1.9-1.7-3.1c-0.4-1.2-0.6-2.5-0.6-4c0-1.4,0.2-2.8,0.6-4.1c0.4-1.3,0.9-2.4,1.7-3.3
			c0.8-0.9,1.7-1.7,2.9-2.2c1.1-0.5,2.5-0.8,4-0.8c1.1,0,2.1,0.1,3.1,0.4c1,0.3,1.8,0.7,2.5,1.2c0.7,0.5,1.3,1.2,1.8,2.1
			c0.5,0.8,0.8,1.8,0.9,3h-3.3C94.5,59.5,94,58.6,93.2,57.9z"/>
	</g>
	<ellipse class="st0" cx="32.8" cy="48.9" rx="3" ry="2.2"/>
</g>
</svg>
