<?xml version="1.0" encoding="utf-8"?>
<!-- Generator: Adobe Illustrator 25.2.1, SVG Export Plug-In . SVG Version: 6.00 Build 0)  -->
<svg version="1.1" id="레이어_1" xmlns="http://www.w3.org/2000/svg" xmlns:xlink="http://www.w3.org/1999/xlink" x="0px"
	 y="0px" viewBox="0 0 128 128" style="enable-background:new 0 0 128 128;" xml:space="preserve">
<style type="text/css">
	.st0{fill:#FFFFFF;}
</style>
<g>
	<path class="st0" d="M64,43.1c6.8,0,7.6,0,10.3,0.1c2.5,0.1,3.8,0.5,4.7,0.9c1.2,0.5,2,1,2.9,1.9c0.9,0.9,1.4,1.7,1.9,2.9
		c0.3,0.9,0.8,2.2,0.9,4.7c0.1,2.7,0.1,3.5,0.1,10.3c0,6.8,0,7.6-0.1,10.3c-0.1,2.5-0.5,3.8-0.9,4.7c-0.5,1.2-1,2-1.9,2.9
		c-0.9,0.9-1.7,1.4-2.9,1.9c-0.9,0.3-2.2,0.8-4.7,0.9c-2.7,0.1-3.5,0.1-10.3,0.1s-7.6,0-10.3-0.1c-2.5-0.1-3.8-0.5-4.7-0.9
		c-1.2-0.5-2-1-2.9-1.9c-0.9-0.9-1.4-1.7-1.9-2.9c-0.3-0.9-0.8-2.2-0.9-4.7c-0.1-2.7-0.1-3.5-0.1-10.3c0-6.8,0-7.6,0.1-10.3
		c0.1-2.5,0.5-3.8,0.9-4.7c0.5-1.2,1-2,1.9-2.9s1.7-1.4,2.9-1.9c0.9-0.3,2.2-0.8,4.7-0.9C56.4,43.1,57.2,43.1,64,43.1 M64,38.5
		c-6.9,0-7.8,0-10.5,0.2c-2.7,0.1-4.6,0.6-6.2,1.2c-1.7,0.7-3.1,1.5-4.5,2.9c-1.4,1.4-2.3,2.8-2.9,4.5c-0.6,1.6-1.1,3.5-1.2,6.2
		c-0.1,2.7-0.2,3.6-0.2,10.5c0,6.9,0,7.8,0.2,10.5c0.1,2.7,0.6,4.6,1.2,6.2c0.7,1.7,1.5,3.1,2.9,4.5c1.4,1.4,2.8,2.3,4.5,2.9
		c1.6,0.6,3.5,1.1,6.2,1.2c2.7,0.1,3.6,0.2,10.5,0.2s7.8,0,10.5-0.2c2.7-0.1,4.6-0.6,6.2-1.2c1.7-0.7,3.1-1.5,4.5-2.9
		c1.4-1.4,2.3-2.8,2.9-4.5c0.6-1.6,1.1-3.5,1.2-6.2c0.1-2.7,0.2-3.6,0.2-10.5c0-6.9,0-7.8-0.2-10.5c-0.1-2.7-0.6-4.6-1.2-6.2
		c-0.7-1.7-1.5-3.1-2.9-4.5c-1.4-1.4-2.8-2.3-4.5-2.9c-1.6-0.6-3.5-1.1-6.2-1.2C71.8,38.5,70.9,38.5,64,38.5z M64,50.9
		c-7.2,0-13.1,5.9-13.1,13.1c0,7.2,5.9,13.1,13.1,13.1S77.1,71.2,77.1,64C77.1,56.8,71.2,50.9,64,50.9z M64,72.5
		c-4.7,0-8.5-3.8-8.5-8.5s3.8-8.5,8.5-8.5s8.5,3.8,8.5,8.5S68.7,72.5,64,72.5z M80.7,50.4c0,1.7-1.4,3.1-3.1,3.1
		c-1.7,0-3.1-1.4-3.1-3.1c0-1.7,1.4-3.1,3.1-3.1C79.3,47.3,80.7,48.7,80.7,50.4z"/>
</g>
</svg>
