<svg xmlns="http://www.w3.org/2000/svg" viewBox="0 0 128 128"><defs><style>.cls-1{fill:#ff0850;}.cls-2{fill:none;}.cls-3{fill:#fff;fill-opacity:0.9;}</style></defs><title>mail</title><g id="레이어_2" data-name="레이어 2"><path class="cls-2" d="M32,32H96V96H32Z"/><path class="cls-3" d="M65.92,37.41A26.66,26.66,0,0,0,37.41,65.92c1,14.11,13.28,24.75,27.42,24.75h9.84a2.67,2.67,0,0,0,0-5.34H64.88c-9.95,0-19.07-6.45-21.55-16.08-4-15.46,10.43-29.89,25.9-25.89,9.65,2.45,16.1,11.57,16.1,21.52v2.93a4,4,0,1,1-8,0V64.48c0-6.69-4.74-12.72-11.36-13.65a13.35,13.35,0,1,0,7.47,22.61,9.87,9.87,0,0,0,11.47,3.23,9.51,9.51,0,0,0,5.76-8.91V64.85C90.67,50.69,80,38.37,65.92,37.41ZM64,72a8,8,0,1,1,8-8A8,8,0,0,1,64,72Z"/></g></svg>