<svg xmlns="http://www.w3.org/2000/svg" viewBox="0 0 128 128"><defs><style>.cls-1{fill:#ffb400;}.cls-2{fill:#fff;}.cls-3{fill:none;}</style></defs><title>portfolio</title><g id="레이어_2" data-name="레이어 2"><path class="cls-2" d="M84.37,56.13,71.49,55l-5-11.89a2.66,2.66,0,0,0-4.9,0L56.51,55l-12.88,1.1a2.65,2.65,0,0,0-1.52,4.66l9.78,8.48L49,81.84a2.66,2.66,0,0,0,4,2.88L64,78.05l11.07,6.7a2.66,2.66,0,0,0,4-2.88L76.11,69.28l9.78-8.48A2.66,2.66,0,0,0,84.37,56.13Z"/><path class="cls-3" d="M32,32V96H96V32ZM85.89,60.8l-9.78,8.48L79,81.87a2.66,2.66,0,0,1-4,2.88L64,78.05,52.93,84.72a2.66,2.66,0,0,1-4-2.88l2.93-12.59-9.78-8.48a2.65,2.65,0,0,1,1.52-4.66L56.51,55l5-11.86a2.66,2.66,0,0,1,4.9,0l5,11.89,12.88,1.09A2.66,2.66,0,0,1,85.89,60.8Z"/></g></svg>