<svg xmlns="http://www.w3.org/2000/svg" viewBox="0 0 128 128"><defs><style>.cls-1{}.cls-2{fill:#fff;}</style></defs><title>solvedac</title><g id="레이어_2" data-name="레이어 2"><polygon class="cls-2" points="53.26 66.33 57.98 66.33 55.62 60.71 53.26 66.33"/><path class="cls-2" d="M89.5,47H38.87a6.5,6.5,0,0,0-6.5,6.5V75.24a6.5,6.5,0,0,0,6.5,6.5H89.5a6.5,6.5,0,0,0,6.5-6.5V53.46A6.5,6.5,0,0,0,89.5,47ZM62.35,73.61h0a1.91,1.91,0,0,1-1.8-1.29l-1.14-2.68h-7.5l-1.2,2.8A1.82,1.82,0,0,1,49,73.61a1.72,1.72,0,0,1-1.73-1.72v0a1.87,1.87,0,0,1,.21-.8l5.94-13.42a2.31,2.31,0,0,1,2.19-1.49h.22A2.28,2.28,0,0,1,58,57.64L63.9,71.06a1.74,1.74,0,0,1-1.55,2.55Zm17.72-2.06-.08.06A9,9,0,0,1,65.19,65v0a8.66,8.66,0,0,1,8.89-8.81,9,9,0,0,1,5.69,1.73,1.86,1.86,0,0,1,.73,1.48,1.83,1.83,0,0,1-1.83,1.83h0a2,2,0,0,1-1.12-.36,5.58,5.58,0,0,0-3.48-1.22,5,5,0,0,0-4.94,5.3v0a5.06,5.06,0,0,0,4.94,5.36A5.48,5.48,0,0,0,77.75,69a1.74,1.74,0,0,1,2.32,2.59Z"/></g></svg>