<?xml version="1.0" encoding="utf-8"?>
<!-- Generator: Adobe Illustrator 25.0.1, SVG Export Plug-In . SVG Version: 6.00 Build 0)  -->
<svg version="1.1" id="레이어_1" xmlns="http://www.w3.org/2000/svg" xmlns:xlink="http://www.w3.org/1999/xlink" x="0px"
	 y="0px" viewBox="0 0 128 128" style="enable-background:new 0 0 128 128;" xml:space="preserve">
<style type="text/css">
	.st0{fill:#FFFFFF;}
</style>
<g>
	<path class="st0" d="M64,32c-17,0-30.9,13.2-32,29.9c0,0,0,0,0,0c0,0,0,0,0,0L49.2,69c0.5-0.3,1-0.6,1.5-0.8
		c1.2-0.5,2.5-0.7,3.8-0.7l7.8-11.4c0-0.1,0-0.1,0-0.2c0-6.7,5.5-12.2,12.2-12.2c6.7,0,12.2,5.5,12.2,12.2c0,6.7-5.5,12.2-12.2,12.2
		c-0.1,0-0.2,0-0.3,0l-11.2,8c0,1.2-0.2,2.5-0.7,3.7c-1.9,4.5-7.1,6.7-11.6,4.8c-2.8-1.2-4.6-3.5-5.2-6.3l-12.1-5
		C37.3,86.5,49.5,96,64,96c17.7,0,32-14.3,32-32C96,46.3,81.7,32,64,32z"/>
	<path class="st0" d="M51.9,81l-4-1.6c0.7,1.5,1.9,2.7,3.5,3.4c3.5,1.5,7.5-0.2,9-3.7h0c0.7-1.7,0.7-3.6,0-5.3c-0.7-1.7-2-3-3.7-3.7
		c-1.7-0.7-3.5-0.7-5.1-0.1l4.1,1.7c2.6,1.1,3.8,4,2.7,6.6C57.4,80.9,54.5,82.1,51.9,81z"/>
	<path class="st0" d="M82.6,56c0-4.5-3.6-8.1-8.1-8.1c-4.5,0-8.1,3.6-8.1,8.1c0,4.5,3.6,8.1,8.1,8.1C79,64.1,82.6,60.5,82.6,56z
		 M68.4,56c0-3.4,2.7-6.1,6.1-6.1c3.4,0,6.1,2.7,6.1,6.1c0,3.4-2.7,6.1-6.1,6.1C71.1,62.1,68.4,59.3,68.4,56z"/>
</g>
</svg>
