<?xml version="1.0" encoding="utf-8"?>
<!-- Generator: Adobe Illustrator 25.0.1, SVG Export Plug-In . SVG Version: 6.00 Build 0)  -->
<svg version="1.1" id="레이어_1" xmlns="http://www.w3.org/2000/svg" xmlns:xlink="http://www.w3.org/1999/xlink" x="0px"
	 y="0px" viewBox="0 0 128 128" style="enable-background:new 0 0 128 128;" xml:space="preserve">
<style type="text/css">
	.st0{fill:#FFFFFF;}
</style>
<g>
	<path class="st0" d="M64,64.1c0.6-0.2,1.1-0.5,1.6-0.6c3.8-1.6,9.1-3.1,14.1-4c-4.5-4.4-10.3-7.1-15.7-7.1s-11.2,2.7-15.7,7.1
		c5,0.9,10.3,2.5,14.1,4C62.9,63.7,63.5,63.9,64,64.1z"/>
	<path class="st0" d="M62.3,65.1L62.3,65.1L62.3,65.1c-0.3-0.1-0.5-0.2-0.7-0.2l0,0c-0.2-0.1-0.5-0.2-0.7-0.2c0,0,0,0-0.1,0h0
		c-0.2-0.1-0.5-0.2-0.7-0.2l0,0c0,0,0,0-0.1,0c-0.2-0.1-0.5-0.2-0.7-0.2c0,0,0,0-0.1,0c-0.2-0.1-0.5-0.2-0.7-0.2c0,0,0,0-0.1,0h0
		c-0.5-0.2-1-0.3-1.6-0.5c0,0,0,0-0.1,0h0c-0.3-0.1-0.5-0.2-0.8-0.2h0c0,0,0,0,0,0c-0.6-0.2-1.2-0.3-1.7-0.5l0,0h0
		c-0.6-0.2-1.2-0.3-1.8-0.5c0,0,0,0,0,0c-0.3-0.1-0.6-0.2-0.9-0.2l0,0l0,0c-0.6-0.2-1.2-0.3-1.9-0.4l0,0l0,0
		c-0.6-0.1-1.2-0.2-1.9-0.4c-3.9,3.8-6.9,8.7-8.2,14.4l0,0.2c1.9,0.1,3.6-0.9,4.1-1.2c6.8-3.8,15.1-8,19.9-8.8l0,0
		C62.9,65.3,62.6,65.1,62.3,65.1z"/>
	<g>
		<path class="st0" d="M37.8,74.7c1.3-5.7,4.2-10.6,8.1-14.4c-7.5-1.3-14.4-1.2-15.9,2.5c-1,2.6,1,6.7,4.5,10.6
			c1,1.1,2.1,1.7,3.1,1.8c0,0,0-0.1,0-0.2C37.8,74.8,37.8,74.7,37.8,74.7z"/>
	</g>
	<path class="st0" d="M65.7,65.1L65.7,65.1L65.7,65.1c0.3-0.1,0.5-0.2,0.7-0.2l0,0c0.2-0.1,0.5-0.2,0.7-0.2c0,0,0,0,0.1,0h0
		c0.2-0.1,0.5-0.2,0.7-0.2l0,0c0,0,0,0,0.1,0c0.2-0.1,0.5-0.2,0.7-0.2c0,0,0,0,0.1,0c0.2-0.1,0.5-0.2,0.7-0.2c0,0,0,0,0.1,0h0
		c0.5-0.2,1-0.3,1.6-0.5c0,0,0,0,0.1,0h0c0.3-0.1,0.5-0.2,0.8-0.2h0c0,0,0,0,0,0c0.6-0.2,1.2-0.3,1.7-0.5l0,0h0
		c0.6-0.2,1.2-0.3,1.8-0.5c0,0,0,0,0,0c0.3-0.1,0.6-0.2,0.9-0.2l0,0l0,0c0.6-0.2,1.2-0.3,1.9-0.4l0,0l0,0c0.6-0.1,1.2-0.2,1.9-0.4
		c3.9,3.8,6.9,8.7,8.2,14.4l0,0.2c-1.9,0.1-3.6-0.9-4.1-1.2c-6.8-3.8-15.1-8-19.9-8.8l0,0C65.1,65.3,65.4,65.1,65.7,65.1z"/>
	<g>
		<path class="st0" d="M90.2,74.7c-1.3-5.7-4.2-10.6-8.1-14.4c7.5-1.3,14.4-1.2,15.9,2.5c1,2.6-1,6.7-4.5,10.6
			c-1,1.1-2.1,1.7-3.1,1.8c0,0,0-0.1,0-0.2C90.2,74.8,90.2,74.7,90.2,74.7z"/>
	</g>
</g>
</svg>
