<svg xmlns="http://www.w3.org/2000/svg" viewBox="0 0 128 128"><defs><style>.cls-1{fill:#38a1f3;}.cls-2{fill:none;}.cls-3{fill:#fff;}</style></defs><title>twitter</title><g id="레이어_2" data-name="레이어 2"><rect class="cls-2" x="32" y="32" width="64" height="64"/><path class="cls-3" d="M91.89,48a22.76,22.76,0,0,1-6.56,1.84,11.46,11.46,0,0,0,5-6.35,22.87,22.87,0,0,1-7.26,2.8,11.25,11.25,0,0,0-8.42-3.62A11.43,11.43,0,0,0,63.28,54.11a12.35,12.35,0,0,0,.29,2.61A32.51,32.51,0,0,1,40,44.77,11.39,11.39,0,0,0,43.55,60a11.27,11.27,0,0,1-5.2-1.33v.08A11.44,11.44,0,0,0,47.52,70a11.1,11.1,0,0,1-3,.4,11.76,11.76,0,0,1-2.14-.21,11.42,11.42,0,0,0,10.67,8A22.74,22.74,0,0,1,38.83,83a22.44,22.44,0,0,1-2.72-.16A32.3,32.3,0,0,0,53.65,88c21,0,32.56-17.44,32.56-32.56,0-.51,0-1,0-1.49A22.74,22.74,0,0,0,91.89,48Z"/></g></svg>